<svg width="24" height="15" viewBox="0 0 24 15" fill="none" xmlns="http://www.w3.org/2000/svg">
    <path
        d="M19.6782 6.01025C19.1901 6.01025 18.7325 6.10178 18.2748 6.25433L17.1155 3.96616L19.0986 1.00679C19.3121 0.701705 19.1901 0 18.5494 0H16.0172C15.6511 0 15.3765 0.27458 15.3765 0.640687C15.3765 1.00679 15.6511 1.28137 16.0172 1.28137H17.3596L16.0172 3.29496H8.63402C8.32893 3.29496 8.11537 3.56954 8.11537 3.56954L6.1628 6.43738C5.61364 6.1628 4.97295 6.01025 4.30176 6.01025C1.92206 6.01025 0 7.93231 0 10.312C0 12.6917 1.92206 14.6138 4.33226 14.6138C6.46789 14.6138 8.26791 13.0273 8.573 10.9527H12.0815C12.4476 10.9527 12.6002 10.6476 12.6002 10.6476L16.2612 5.156L17.146 6.83399C16.0782 7.62723 15.3765 8.87809 15.3765 10.312C15.3765 12.6917 17.2985 14.6138 19.6782 14.6138C22.0579 14.6138 23.98 12.6917 23.98 10.312C23.98 7.93231 22.0274 6.01025 19.6782 6.01025ZM12.1425 9.06114L9.70183 4.54583H15.1324L12.1425 9.06114ZM8.573 5.156L10.9832 9.67132H8.54249C8.38995 8.69504 7.90181 7.81028 7.2001 7.16959L8.573 5.156ZM6.4984 8.2374C6.8645 8.63402 7.13908 9.12216 7.26112 9.67132H5.52211L6.4984 8.2374ZM4.33226 13.3019C2.68478 13.3019 1.31188 11.9595 1.31188 10.2815C1.31188 8.60351 2.65427 7.29163 4.33226 7.29163C4.72888 7.29163 5.09499 7.38316 5.46109 7.50519L3.81361 9.9459C3.53903 10.2815 3.7831 10.9222 4.33226 10.9222H7.26112C6.95603 12.2951 5.73567 13.3019 4.33226 13.3019ZM19.6782 13.3019C18.0308 13.3019 16.6579 11.9595 16.6579 10.2815C16.6579 9.36623 17.085 8.51198 17.7562 7.96282L19.1291 10.5866C19.2816 10.8307 19.6477 11.0137 20.0138 10.8612C20.3189 10.7391 20.441 10.312 20.2884 10.0069L18.9155 7.41366C19.1596 7.35265 19.4342 7.29163 19.7088 7.29163C21.3562 7.29163 22.7291 8.63402 22.7291 10.312C22.7291 11.99 21.3562 13.3019 19.6782 13.3019ZM7.47468 2.25766H9.82387C10.19 2.25766 10.4646 1.98308 10.4646 1.61697C10.4646 1.25087 10.19 0.976285 9.82387 0.976285H7.47468C7.10857 0.976285 6.83399 1.25087 6.83399 1.61697C6.80349 1.95257 7.10857 2.25766 7.47468 2.25766Z"
        fill="#404959" />
</svg>
    