<svg width="24" height="18" viewBox="0 0 24 18" fill="none" xmlns="http://www.w3.org/2000/svg">
    <mask id="path-1-inside-1_304_32243" fill="white">
        <path fill-rule="evenodd" clip-rule="evenodd"
            d="M21 15C21 16.6567 19.6575 18 18 18C16.3425 18 15 16.6567 15 15H9C9 16.6567 7.6575 18 6 18C4.3425 18 3 16.6567 3 15C1.34325 15 0 13.6567 0 12V10.4985L2.79787 6C3.57056 4.34325 5.54006 3 7.19681 3H10.5V0H24V9V10.5V12C24 13.6567 22.6567 15 21 15ZM18 16.5C18.8269 16.5 19.5 15.8276 19.5 15C19.5 14.1724 18.8269 13.5 18 13.5C17.1731 13.5 16.5 14.1724 16.5 15C16.5 15.8276 17.1731 16.5 18 16.5ZM6 16.5C6.82687 16.5 7.5 15.8276 7.5 15C7.5 14.1724 6.82687 13.5 6 13.5C5.17313 13.5 4.5 14.1724 4.5 15C4.5 15.8276 5.17313 16.5 6 16.5ZM22.5 1.5H12V3V9H22.5V1.5ZM22.5 10.5H10.5V9V4.5H7.19681C6.12675 4.5 4.67794 5.51662 4.15725 6.63431L4.11919 6.71494L4.07156 6.79256L2.69906 9L1.5 10.5V12C1.5 12.8276 2.17313 13.5 3 13.5H3.41606C3.93544 12.6064 4.89188 12 6 12C7.10812 12 8.06475 12.6064 8.58394 13.5H15.4161C15.9354 12.6064 16.8919 12 18 12C19.1081 12 20.0647 12.6064 20.5839 13.5H21C21.8269 13.5 22.5 12.8276 22.5 12V10.5Z" />
    </mask>
    <path fill-rule="evenodd" clip-rule="evenodd"
        d="M21 15C21 16.6567 19.6575 18 18 18C16.3425 18 15 16.6567 15 15H9C9 16.6567 7.6575 18 6 18C4.3425 18 3 16.6567 3 15C1.34325 15 0 13.6567 0 12V10.4985L2.79787 6C3.57056 4.34325 5.54006 3 7.19681 3H10.5V0H24V9V10.5V12C24 13.6567 22.6567 15 21 15ZM18 16.5C18.8269 16.5 19.5 15.8276 19.5 15C19.5 14.1724 18.8269 13.5 18 13.5C17.1731 13.5 16.5 14.1724 16.5 15C16.5 15.8276 17.1731 16.5 18 16.5ZM6 16.5C6.82687 16.5 7.5 15.8276 7.5 15C7.5 14.1724 6.82687 13.5 6 13.5C5.17313 13.5 4.5 14.1724 4.5 15C4.5 15.8276 5.17313 16.5 6 16.5ZM22.5 1.5H12V3V9H22.5V1.5ZM22.5 10.5H10.5V9V4.5H7.19681C6.12675 4.5 4.67794 5.51662 4.15725 6.63431L4.11919 6.71494L4.07156 6.79256L2.69906 9L1.5 10.5V12C1.5 12.8276 2.17313 13.5 3 13.5H3.41606C3.93544 12.6064 4.89188 12 6 12C7.10812 12 8.06475 12.6064 8.58394 13.5H15.4161C15.9354 12.6064 16.8919 12 18 12C19.1081 12 20.0647 12.6064 20.5839 13.5H21C21.8269 13.5 22.5 12.8276 22.5 12V10.5Z"
        fill="#404959" />
    <path
        d="M21 15V8.75H14.75V15H21ZM15 15H21.25V8.75H15V15ZM9 15V8.75H2.75V15H9ZM3 15H9.25V8.75H3V15ZM0 10.4985L-5.30723 7.19763L-6.25 8.71343V10.4985H0ZM2.79787 6L8.10511 9.30087L8.30342 8.98203L8.46213 8.64174L2.79787 6ZM10.5 3V9.25H16.75V3H10.5ZM10.5 0V-6.25H4.25V0H10.5ZM24 0H30.25V-6.25H24V0ZM22.5 1.5H28.75V-4.75H22.5V1.5ZM12 1.5V-4.75H5.75V1.5H12ZM12 9H5.75V15.25H12V9ZM22.5 9V15.25H28.75V9H22.5ZM22.5 10.5H28.75V4.25H22.5V10.5ZM10.5 10.5H4.25V16.75H10.5V10.5ZM10.5 4.5H16.75V-1.75H10.5V4.5ZM4.15725 6.63431L9.80908 9.30251L9.8159 9.28807L9.82264 9.2736L4.15725 6.63431ZM4.11919 6.71494L9.44647 9.98335L9.62515 9.69212L9.77102 9.38314L4.11919 6.71494ZM4.07156 6.79256L9.37926 10.0927L9.3891 10.0769L9.39885 10.061L4.07156 6.79256ZM2.69906 9L7.58098 12.9025L7.81168 12.6139L8.00676 12.3001L2.69906 9ZM1.5 10.5L-3.38192 6.59752L-4.75 8.30896V10.5H1.5ZM3.41606 13.5V19.75H7.0125L8.81969 16.6406L3.41606 13.5ZM8.58394 13.5L3.17982 16.6397L4.98685 19.75H8.58394V13.5ZM15.4161 13.5V19.75H19.0125L20.8197 16.6406L15.4161 13.5ZM20.5839 13.5L15.1798 16.6397L16.9868 19.75H20.5839V13.5ZM21 15H14.75C14.75 13.206 16.2047 11.75 18 11.75V18V24.25C23.1103 24.25 27.25 20.1075 27.25 15H21ZM18 18V11.75C19.7953 11.75 21.25 13.206 21.25 15H15H8.75C8.75 20.1075 12.8897 24.25 18 24.25V18ZM15 15V8.75H9V15V21.25H15V15ZM9 15H2.75C2.75 13.206 4.2047 11.75 6 11.75V18V24.25C11.1103 24.25 15.25 20.1075 15.25 15H9ZM6 18V11.75C7.7953 11.75 9.25 13.206 9.25 15H3H-3.25C-3.25 20.1075 0.889703 24.25 6 24.25V18ZM3 15V8.75C4.79503 8.75 6.25 10.205 6.25 12H0H-6.25C-6.25 17.1085 -2.10853 21.25 3 21.25V15ZM0 12H6.25V10.4985H0H-6.25V12H0ZM0 10.4985L5.30723 13.7994L8.10511 9.30087L2.79787 6L-2.50936 2.69913L-5.30723 7.19763L0 10.4985ZM2.79787 6L8.46213 8.64174C8.3668 8.84613 8.27814 8.9524 8.24851 8.98571C8.21656 9.02164 8.19824 9.03476 8.1873 9.04221C8.17819 9.04843 8.12368 9.08552 8.00127 9.12877C7.88602 9.16949 7.61226 9.25 7.19681 9.25V3V-3.25C4.78328 -3.25 2.66867 -2.32436 1.14434 -1.28477C-0.411929 -0.223407 -1.92632 1.34266 -2.86638 3.35826L2.79787 6ZM7.19681 3V9.25H10.5V3V-3.25H7.19681V3ZM10.5 3H16.75V0H10.5H4.25V3H10.5ZM10.5 0V6.25H24V0V-6.25H10.5V0ZM24 0H17.75V9H24H30.25V0H24ZM24 9H17.75V10.5H24H30.25V9H24ZM24 10.5H17.75V12H24H30.25V10.5H24ZM24 12H17.75C17.75 10.205 19.205 8.75 21 8.75V15V21.25C26.1085 21.25 30.25 17.1085 30.25 12H24ZM18 16.5V22.75C22.2766 22.75 25.75 19.2814 25.75 15H19.5H13.25C13.25 12.3738 15.3771 10.25 18 10.25V16.5ZM19.5 15H25.75C25.75 10.7186 22.2766 7.25 18 7.25V13.5V19.75C15.3771 19.75 13.25 17.6262 13.25 15H19.5ZM18 13.5V7.25C13.7234 7.25 10.25 10.7186 10.25 15H16.5H22.75C22.75 17.6262 20.6229 19.75 18 19.75V13.5ZM16.5 15H10.25C10.25 19.2814 13.7234 22.75 18 22.75V16.5V10.25C20.6229 10.25 22.75 12.3738 22.75 15H16.5ZM6 16.5V22.75C10.2766 22.75 13.75 19.2814 13.75 15H7.5H1.25C1.25 12.3738 3.37713 10.25 6 10.25V16.5ZM7.5 15H13.75C13.75 10.7186 10.2766 7.25 6 7.25V13.5V19.75C3.37713 19.75 1.25 17.6262 1.25 15H7.5ZM6 13.5V7.25C1.72338 7.25 -1.75 10.7186 -1.75 15H4.5H10.75C10.75 17.6262 8.62287 19.75 6 19.75V13.5ZM4.5 15H-1.75C-1.75 19.2814 1.72338 22.75 6 22.75V16.5V10.25C8.62287 10.25 10.75 12.3738 10.75 15H4.5ZM22.5 1.5V-4.75H12V1.5V7.75H22.5V1.5ZM12 1.5H5.75V3H12H18.25V1.5H12ZM12 3H5.75V9H12H18.25V3H12ZM12 9V15.25H22.5V9V2.75H12V9ZM22.5 9H28.75V1.5H22.5H16.25V9H22.5ZM22.5 10.5V4.25H10.5V10.5V16.75H22.5V10.5ZM10.5 10.5H16.75V9H10.5H4.25V10.5H10.5ZM10.5 9H16.75V4.5H10.5H4.25V9H10.5ZM10.5 4.5V-1.75H7.19681V4.5V10.75H10.5V4.5ZM7.19681 4.5V-1.75C4.90418 -1.75 3.02551 -0.771529 1.87994 0.0326876C0.663849 0.886409 -0.674875 2.20637 -1.50814 3.99502L4.15725 6.63431L9.82264 9.2736C9.64698 9.65067 9.46155 9.88222 9.3604 9.99535C9.25242 10.1161 9.15353 10.1992 9.06209 10.2634C8.97412 10.3251 8.82041 10.4204 8.57911 10.5129C8.3597 10.5969 7.88158 10.75 7.19681 10.75V4.5ZM4.15725 6.63431L-1.49458 3.96611L-1.53264 4.04674L4.11919 6.71494L9.77102 9.38314L9.80908 9.30251L4.15725 6.63431ZM4.11919 6.71494L-1.2081 3.44652L-1.25572 3.52415L4.07156 6.79256L9.39885 10.061L9.44647 9.98335L4.11919 6.71494ZM4.07156 6.79256L-1.23614 3.49244L-2.60864 5.69988L2.69906 9L8.00676 12.3001L9.37926 10.0927L4.07156 6.79256ZM2.69906 9L-2.18286 5.09752L-3.38192 6.59752L1.5 10.5L6.38192 14.4025L7.58098 12.9025L2.69906 9ZM1.5 10.5H-4.75V12H1.5H7.75V10.5H1.5ZM1.5 12H-4.75C-4.75 16.2814 -1.27662 19.75 3 19.75V13.5V7.25C5.62287 7.25 7.75 9.37381 7.75 12H1.5ZM3 13.5V19.75H3.41606V13.5V7.25H3V13.5ZM3.41606 13.5L8.81969 16.6406C8.29144 17.5495 7.25643 18.25 6 18.25V12V5.75C2.52732 5.75 -0.420563 7.66326 -1.98757 10.3594L3.41606 13.5ZM6 12V18.25C4.74416 18.25 3.70865 17.55 3.17982 16.6397L8.58394 13.5L13.9881 10.3603C12.4208 7.66278 9.47209 5.75 6 5.75V12ZM8.58394 13.5V19.75H15.4161V13.5V7.25H8.58394V13.5ZM15.4161 13.5L20.8197 16.6406C20.2914 17.5495 19.2564 18.25 18 18.25V12V5.75C14.5273 5.75 11.5794 7.66326 10.0124 10.3594L15.4161 13.5ZM18 12V18.25C16.7442 18.25 15.7086 17.55 15.1798 16.6397L20.5839 13.5L25.9881 10.3603C24.4209 7.66278 21.4721 5.75 18 5.75V12ZM20.5839 13.5V19.75H21V13.5V7.25H20.5839V13.5ZM21 13.5V19.75C25.2766 19.75 28.75 16.2814 28.75 12H22.5H16.25C16.25 9.37381 18.3771 7.25 21 7.25V13.5ZM22.5 12H28.75V10.5H22.5H16.25V12H22.5Z"
        fill="#404959" mask="url(#path-1-inside-1_304_32243)" />
</svg>
    