<svg width="23" height="17" viewBox="0 0 23 17" fill="none" xmlns="http://www.w3.org/2000/svg">
    <path
        d="M0.599609 8.09961H21.5242M6.89961 13.4568H15.2996M6.89961 13.4568C6.89961 14.6403 5.95941 15.5996 4.79961 15.5996C3.63981 15.5996 2.69961 14.6403 2.69961 13.4568M6.89961 13.4568C6.89961 12.2733 5.95941 11.3139 4.79961 11.3139C3.63981 11.3139 2.69961 12.2733 2.69961 13.4568M15.2996 13.4568C15.2996 14.6403 16.2398 15.5996 17.3996 15.5996C18.5594 15.5996 19.4996 14.6403 19.4996 13.4568M15.2996 13.4568C15.2996 12.2733 16.2398 11.3139 17.3996 11.3139C18.5594 11.3139 19.4996 12.2733 19.4996 13.4568M2.69961 13.4568C1.53981 13.4568 0.599609 12.4974 0.599609 11.3139V4.02818C0.599609 2.82807 0.599609 2.22801 0.828499 1.76963C1.02983 1.36642 1.35108 1.03861 1.74623 0.83317C2.19544 0.599609 2.7835 0.599609 3.95961 0.599609H15.4498C16.1599 0.599609 16.515 0.599609 16.8325 0.70537C17.1135 0.798949 17.372 0.951991 17.5909 1.15449C17.8385 1.38336 18.0147 1.69795 18.367 2.32714L21.1569 7.30911C21.3218 7.60343 21.4042 7.75075 21.4625 7.90697C21.5141 8.04572 21.5516 8.18961 21.5742 8.33629C21.5996 8.5015 21.5996 8.671 21.5996 9.01011V11.3139C21.5996 12.4974 20.6594 13.4568 19.4996 13.4568M13.1996 0.599609V8.09961M6.89961 0.599609V8.09961"
        stroke="#404959" stroke-width="1.2" stroke-linecap="round" stroke-linejoin="round" />
</svg>
    