<svg width="20" height="20" viewBox="0 0 20 20" fill="none" xmlns="http://www.w3.org/2000/svg">
    <path
        d="M18.3327 7.70801H1.66602C1.32435 7.70801 1.04102 7.42467 1.04102 7.08301C1.04102 6.74134 1.32435 6.45801 1.66602 6.45801H18.3327C18.6743 6.45801 18.9577 6.74134 18.9577 7.08301C18.9577 7.42467 18.6743 7.70801 18.3327 7.70801Z"
        fill="#707683" />
    <path
        d="M6.66667 14.375H5C4.65833 14.375 4.375 14.0917 4.375 13.75C4.375 13.4083 4.65833 13.125 5 13.125H6.66667C7.00833 13.125 7.29167 13.4083 7.29167 13.75C7.29167 14.0917 7.00833 14.375 6.66667 14.375Z"
        fill="#707683" />
    <path
        d="M12.0833 14.375H8.75C8.40833 14.375 8.125 14.0917 8.125 13.75C8.125 13.4083 8.40833 13.125 8.75 13.125H12.0833C12.425 13.125 12.7083 13.4083 12.7083 13.75C12.7083 14.0917 12.425 14.375 12.0833 14.375Z"
        fill="#707683" />
    <path
        d="M14.6327 17.7087H5.36602C2.04935 17.7087 1.04102 16.7087 1.04102 13.4253V6.57533C1.04102 3.29199 2.04935 2.29199 5.36602 2.29199H14.6243C17.941 2.29199 18.9494 3.29199 18.9494 6.57533V13.417C18.9577 16.7087 17.9493 17.7087 14.6327 17.7087ZM5.36602 3.54199C2.74935 3.54199 2.29102 3.99199 2.29102 6.57533V13.417C2.29102 16.0003 2.74935 16.4503 5.36602 16.4503H14.6243C17.241 16.4503 17.6994 16.0003 17.6994 13.417V6.57533C17.6994 3.99199 17.241 3.54199 14.6243 3.54199H5.36602Z"
        fill="#707683" />
</svg>
    