<svg width="18" height="18" viewBox="0 0 18 18" fill="none" xmlns="http://www.w3.org/2000/svg">
    <path
        d="M15.2099 5.04785C15.1954 5.04785 15.1737 5.04785 15.152 5.04785C11.3205 4.65035 7.49626 4.50035 3.70824 4.89785L2.2307 5.04785C1.9265 5.07785 1.65852 4.85285 1.62954 4.53785C1.60057 4.22285 1.81786 3.95285 2.11482 3.92285L3.59236 3.77285C7.44556 3.36785 11.3495 3.52535 15.2606 3.92285C15.5576 3.95285 15.7748 4.23035 15.7459 4.53785C15.7241 4.83035 15.4851 5.04785 15.2099 5.04785Z"
        fill="#F93642" />
    <path
        d="M6.15508 4.29C6.12611 4.29 6.09714 4.29 6.06092 4.2825C5.77121 4.23 5.56841 3.9375 5.61911 3.6375L5.77845 2.655C5.89434 1.935 6.05368 0.9375 7.74127 0.9375H9.63889C11.3337 0.9375 11.4931 1.9725 11.6017 2.6625L11.7611 3.6375C11.8118 3.945 11.609 4.2375 11.3192 4.2825C11.0223 4.335 10.7398 4.125 10.6964 3.825L10.537 2.85C10.4356 2.1975 10.4139 2.07 9.64614 2.07H7.74851C6.98077 2.07 6.96628 2.175 6.85764 2.8425L6.69105 3.8175C6.64759 4.095 6.41582 4.29 6.15508 4.29Z"
        fill="#F93642" />
    <path
        d="M11.0165 17.0627H6.36657C3.83882 17.0627 3.73742 15.6152 3.65774 14.4452L3.18696 6.89268C3.16523 6.58518 3.397 6.31518 3.69396 6.29268C3.99816 6.27768 4.25166 6.51018 4.27339 6.81768L4.74417 14.3702C4.82384 15.5102 4.85282 15.9377 6.36657 15.9377H11.0165C12.5375 15.9377 12.5665 15.5102 12.6389 14.3702L13.1097 6.81768C13.1314 6.51018 13.3921 6.27768 13.6891 6.29268C13.9861 6.31518 14.2178 6.57768 14.1961 6.89268L13.7253 14.4452C13.6456 15.6152 13.5442 17.0627 11.0165 17.0627Z"
        fill="#F93642" />
</svg>
    