<svg width="17" height="17" viewBox="0 0 17 17" fill="none" xmlns="http://www.w3.org/2000/svg">
    <path
        d="M7.79102 1.41699H6.37435C2.83268 1.41699 1.41602 2.83366 1.41602 6.37533V10.6253C1.41602 14.167 2.83268 15.5837 6.37435 15.5837H10.6243C14.166 15.5837 15.5827 14.167 15.5827 10.6253V9.20866"
        stroke="#56687A" stroke-linecap="round" stroke-linejoin="round" />
    <path
        d="M11.3608 2.13874L5.77918 7.7204C5.56668 7.9329 5.35418 8.35082 5.31168 8.6554L5.0071 10.7875C4.89377 11.5596 5.43918 12.0979 6.21127 11.9917L8.34335 11.6871C8.64085 11.6446 9.05877 11.4321 9.27835 11.2196L14.86 5.6379C15.8233 4.67457 16.2767 3.5554 14.86 2.13874C13.4433 0.722069 12.3242 1.1754 11.3608 2.13874Z"
        stroke="#56687A" stroke-miterlimit="10" stroke-linecap="round" stroke-linejoin="round" />
    <path d="M10.5605 2.93945C11.0351 4.63237 12.3597 5.95695 14.0597 6.43862" stroke="#56687A"
        stroke-miterlimit="10" stroke-linecap="round" stroke-linejoin="round" />
</svg>
    