<svg width="60" height="60" viewBox="0 0 60 60" fill="none" xmlns="http://www.w3.org/2000/svg">
    <circle cx="30" cy="30" r="29" stroke="#2D6495" stroke-width="2" />
    <path
        d="M43.3602 36.427L39.1868 26.667C38.4268 24.8804 37.2935 23.867 36.0002 23.8004C34.7202 23.7337 33.4802 24.627 32.5335 26.3337L30.0002 30.8804C29.4668 31.8404 28.7068 32.4137 27.8802 32.4804C27.0402 32.5604 26.2002 32.1204 25.5202 31.2537L25.2268 30.8804C24.2802 29.6937 23.1068 29.1204 21.9068 29.2404C20.7068 29.3604 19.6802 30.187 19.0002 31.5337L16.6935 36.1337C15.8669 37.8004 15.9469 39.7337 16.9202 41.307C17.8935 42.8804 19.5868 43.827 21.4402 43.827H38.4535C40.2402 43.827 41.9068 42.9337 42.8935 41.4404C43.9068 39.947 44.0668 38.067 43.3602 36.427Z"
        fill="#2D6495" />
    <path
        d="M23.2938 25.1735C25.7827 25.1735 27.8004 23.1558 27.8004 20.6668C27.8004 18.1779 25.7827 16.1602 23.2938 16.1602C20.8048 16.1602 18.7871 18.1779 18.7871 20.6668C18.7871 23.1558 20.8048 25.1735 23.2938 25.1735Z"
        fill="#2D6495" />
</svg>
    