<svg width="16" height="16" viewBox="0 0 16 16" fill="none" xmlns="http://www.w3.org/2000/svg">
<path d="M5.59375 12.3245V5.5512C5.59375 5.28453 5.67375 5.02453 5.82042 4.80453L7.64042 2.09787C7.92708 1.66453 8.64042 1.35787 9.24708 1.58453C9.90042 1.80453 10.3337 2.53787 10.1937 3.1912L9.84708 5.3712C9.82042 5.5712 9.87375 5.7512 9.98708 5.8912C10.1004 6.01787 10.2671 6.09787 10.4471 6.09787H13.1871C13.7138 6.09787 14.1671 6.3112 14.4338 6.68453C14.6871 7.04453 14.7338 7.5112 14.5671 7.98453L12.9271 12.9779C12.7204 13.8045 11.8204 14.4779 10.9271 14.4779H8.32708C7.88042 14.4779 7.25375 14.3245 6.96708 14.0379L6.11375 13.3779C5.78708 13.1312 5.59375 12.7379 5.59375 12.3245Z" fill="#F99F36"/>
<path d="M3.47398 4.25H2.78732C1.75398 4.25 1.33398 4.65 1.33398 5.63667V12.3433C1.33398 13.33 1.75398 13.73 2.78732 13.73H3.47398C4.50732 13.73 4.92732 13.33 4.92732 12.3433V5.63667C4.92732 4.65 4.50732 4.25 3.47398 4.25Z" fill="#F99F36"/>
</svg>
