<?xml version="1.0" encoding="UTF-8"?>
<svg version="1.1" xmlns="http://www.w3.org/2000/svg" width="2608" height="1953">
<path d="M0 0 C5.29339218 -0.00497425 10.58675488 -0.01382182 15.88013372 -0.02667515 C111.29825393 -0.25767973 204.31957515 5.50909983 374.0856921 102.36215234 C374.70750362 102.83910547 375.32931515 103.31605859 375.96996944 103.80746484 C380.04500213 106.94733399 384.07496554 110.14069414 388.0856921 113.36215234 C388.72071651 113.87100976 389.35574093 114.37986719 390.01000851 114.90414453 C398.93599781 122.06845407 407.7088744 129.38909226 416.36352413 136.87826562 C418.10638394 138.37998123 419.8581606 139.87059599 421.61303585 141.35824609 C428.63255466 147.31689995 435.47344714 153.42629113 442.2106921 159.70199609 C444.43098167 161.75636728 446.66786516 163.76551883 448.9606921 165.73715234 C453.5291848 169.68880214 457.91068158 173.84006772 462.31786983 177.96933008 C466.19805077 181.60391172 470.09627862 185.21560716 474.0231921 188.79965234 C480.74774959 194.94807639 487.38605838 201.18717327 494.02563351 207.42709375 C496.6961682 209.93558604 499.37004407 212.44050033 502.04394405 214.94540429 C508.25370642 220.76298727 514.45425153 226.59022856 520.6481921 232.42465234 C527.82241372 239.18132235 535.01999417 245.91246098 542.22973507 252.63119531 C544.13246445 254.40577454 546.03316858 256.18249976 547.93334835 257.95980859 C554.6329877 264.22458291 561.3550136 270.46225591 568.1247546 276.65121484 C571.2882495 279.5442172 574.43743367 282.45258905 577.5856921 285.36215234 C583.24144894 290.58757072 588.91362445 295.79476939 594.59301632 300.99447656 C596.11384086 302.38794386 597.63316534 303.78302985 599.15209835 305.17855859 C604.58224127 310.16591872 610.03587926 315.12514082 615.5231921 320.04965234 C618.39169655 322.6383027 621.24042191 325.24804343 624.0856921 327.86215234 C629.38692285 332.73159338 634.72761893 337.55539217 640.0856921 342.36215234 C641.75261857 343.86186362 643.41928359 345.36186555 645.0856921 346.86215234 C645.9106921 347.60465234 646.7356921 348.34715234 647.5856921 349.11215234 C650.0856921 351.36215234 652.5856921 353.61215234 655.0856921 355.86215234 C655.90811398 356.60207422 656.73053585 357.34199609 657.5778796 358.10433984 C659.27162104 359.62923479 660.96430379 361.15530636 662.6560046 362.68246484 C667.0811734 366.6745896 671.52906345 370.63541126 676.0231921 374.54965234 C679.25944287 377.39363029 682.44977878 380.28827935 685.6481921 383.17465234 C688.42066518 385.66276921 691.22414059 388.11282698 694.03491085 390.55746484 C696.34658007 392.59173375 698.6210064 394.66437544 700.8981921 396.73715234 C704.29652762 399.80962007 707.76159733 402.74657856 711.3356921 405.61215234 C716.40912132 409.71102454 721.14638391 414.09455222 725.89111202 418.56210351 C730.20742927 422.60440637 734.69045444 426.35788725 739.30834835 430.05355859 C742.51012139 432.71494799 745.54802635 435.51678899 748.5856921 438.36215234 C753.34655865 442.82091926 758.25037287 447.0001327 763.33959835 451.08480859 C766.34888357 453.58041781 769.22506232 456.19982039 772.0856921 458.86215234 C776.69568153 463.15175641 781.46352726 467.16626356 786.37084835 471.11605859 C789.19242705 473.45045824 791.89159922 475.88205833 794.5856921 478.36215234 C799.0555433 482.47594143 803.67614103 486.33302531 808.40209835 490.14730859 C811.03277767 492.31848061 813.56511635 494.56456591 816.0856921 496.86215234 C820.36076708 500.75287516 824.76929335 504.43334137 829.2653796 508.06527734 C832.07497822 510.35342691 834.82813829 512.69920258 837.5856921 515.04965234 C867.18275261 539.67563034 902.55570633 562.3013474 942.0856921 564.36215234 C942.97385616 564.4150039 943.86202023 564.46785547 944.77709835 564.52230859 C966.69911158 565.17968317 993.66107613 561.89092605 1010.2497546 546.38558984 C1022.68645132 532.67876239 1030.13356662 511.04846064 1029.3981921 492.52621484 C1026.29532442 461.1096796 1004.41992734 436.08559669 981.2810046 416.27230859 C978.50147151 413.85381805 975.7942577 411.35932795 973.0856921 408.86215234 C969.15310139 405.24097552 965.18354494 401.67255698 961.14428585 398.17074609 C958.5961256 395.93203984 956.09158617 393.64805023 953.5856921 391.36215234 C950.44485654 388.49743419 947.29468454 385.65029332 944.0856921 382.86215234 C939.90840127 379.23270293 935.83031971 375.49736214 931.7419421 371.76840234 C929.54216469 369.77566281 927.32613992 367.80877094 925.0856921 365.86215234 C920.90840127 362.23270293 916.83031971 358.49736214 912.7419421 354.76840234 C910.54216469 352.77566281 908.32613992 350.80877094 906.0856921 348.86215234 C901.90840127 345.23270293 897.83031971 341.49736214 893.7419421 337.76840234 C891.54216469 335.77566281 889.32613992 333.80877094 887.0856921 331.86215234 C882.90840127 328.23270293 878.83031971 324.49736214 874.7419421 320.76840234 C872.54216469 318.77566281 870.32613992 316.80877094 868.0856921 314.86215234 C863.90840127 311.23270293 859.83031971 307.49736214 855.7419421 303.76840234 C853.54216469 301.77566281 851.32613992 299.80877094 849.0856921 297.86215234 C844.90840127 294.23270293 840.83031971 290.49736214 836.7419421 286.76840234 C834.54216469 284.77566281 832.32613992 282.80877094 830.0856921 280.86215234 C825.90840127 277.23270293 821.83031971 273.49736214 817.7419421 269.76840234 C815.54216469 267.77566281 813.32613992 265.80877094 811.0856921 263.86215234 C806.90840127 260.23270293 802.83031971 256.49736214 798.7419421 252.76840234 C796.54216469 250.77566281 794.32613992 248.80877094 792.0856921 246.86215234 C787.90840127 243.23270293 783.83031971 239.49736214 779.7419421 235.76840234 C777.54216469 233.77566281 775.32613992 231.80877094 773.0856921 229.86215234 C768.90840127 226.23270293 764.83031971 222.49736214 760.7419421 218.76840234 C758.54216469 216.77566281 756.32613992 214.80877094 754.0856921 212.86215234 C749.90840127 209.23270293 745.83031971 205.49736214 741.7419421 201.76840234 C739.54216469 199.77566281 737.32613992 197.80877094 735.0856921 195.86215234 C730.90840127 192.23270293 726.83031971 188.49736214 722.7419421 184.76840234 C720.54216469 182.77566281 718.32613992 180.80877094 716.0856921 178.86215234 C711.90840127 175.23270293 707.83031971 171.49736214 703.7419421 167.76840234 C701.54216469 165.77566281 699.32613992 163.80877094 697.0856921 161.86215234 C692.90840127 158.23270293 688.83031971 154.49736214 684.7419421 150.76840234 C682.54216469 148.77566281 680.32613992 146.80877094 678.0856921 144.86215234 C673.90840127 141.23270293 669.83031971 137.49736214 665.7419421 133.76840234 C663.54216469 131.77566281 661.32613992 129.80877094 659.0856921 127.86215234 C654.90840127 124.23270293 650.83031971 120.49736214 646.7419421 116.76840234 C644.54216469 114.77566281 642.32613992 112.80877094 640.0856921 110.86215234 C635.90840127 107.23270293 631.83031971 103.49736214 627.7419421 99.76840234 C625.54216469 97.77566281 623.32613992 95.80877094 621.0856921 93.86215234 C616.90840127 90.23270293 612.83031971 86.49736214 608.7419421 82.76840234 C606.54216469 80.77566281 604.32613992 78.80877094 602.0856921 76.86215234 C597.90840127 73.23270293 593.83031971 69.49736214 589.7419421 65.76840234 C586.91905161 63.21119567 584.05746326 60.70448677 581.1794421 58.20980859 C577.72809776 55.16412599 574.36381634 52.02269851 570.9919421 48.88949609 C563.26586644 42.17071793 554.83946067 37.17044506 545.95483273 32.12973047 C541.05446474 29.29833211 536.70695742 26.75777629 533.0856921 22.36215234 C532.4606921 19.73715234 532.4606921 19.73715234 533.0856921 17.36215234 C542.62756055 8.77447074 563.22030034 11.18350296 575.12499874 11.06112695 C576.73203432 11.0416049 578.33906639 11.02179316 579.94609516 11.00171876 C584.3431877 10.94832746 588.74032662 10.90129315 593.13750976 10.8560462 C595.97222527 10.82659214 598.80692151 10.79566372 601.64161747 10.76438737 C648.67624254 10.24919324 695.71227488 10.10635236 742.74920272 9.96158404 C767.40449805 9.88524193 792.05975334 9.79622066 816.71500758 9.70773634 C821.44146442 9.69077558 826.16792159 9.67391159 830.89437904 9.65711925 C895.50258833 9.42742985 960.11054396 9.1449568 1024.7185046 8.85433984 C1027.2562314 8.8429317 1029.7939582 8.83152377 1032.331685 8.82011605 C1082.06995745 8.59646513 1131.80821661 8.36989957 1181.54647174 8.14243225 C1202.30559172 8.04749628 1223.06471368 7.95300166 1243.82383721 7.85884571 C1256.34321903 7.80203189 1268.86259839 7.74472356 1281.38197482 7.68673306 C1289.86316513 7.64747732 1298.34435763 7.60872067 1306.82555197 7.57034345 C1311.66982653 7.54840455 1316.5140998 7.52624553 1321.35837036 7.5034374 C1338.05836266 7.42495643 1354.75838913 7.34770248 1371.45858566 7.33477904 C1373.37467268 7.3331846 1375.29075856 7.330363 1377.20684408 7.32748527 C1386.97427626 7.32686819 1396.70876189 7.57162356 1406.4606921 8.11215234 C1407.66631802 8.17650476 1407.66631802 8.17650476 1408.89630001 8.24215722 C1462.13936 11.14399022 1513.94790078 22.36455229 1564.0856921 40.36215234 C1565.31690792 40.80252832 1566.54812374 41.24290429 1567.81664913 41.696625 C1585.68597793 48.1830799 1602.71244815 56.2132769 1619.73022335 64.63949609 C1620.37070614 64.95577966 1621.01118893 65.27206323 1621.67108028 65.59793115 C1624.76771153 67.14364353 1627.79046738 68.75570838 1630.77538937 70.50839258 C1633.41847234 71.98851124 1635.52432935 72.96920976 1638.4060046 73.74496484 C1643.77660897 75.43676199 1648.23732135 78.21955491 1652.9606921 81.23715234 C1653.86617794 81.80724023 1654.77166378 82.37732812 1655.70458858 82.9646914 C1669.21968351 91.53667298 1682.42961787 100.56224621 1695.0856921 110.36215234 C1695.64063351 110.78705957 1696.19557491 111.21196679 1696.76733273 111.64975 C1703.91411131 117.12408784 1710.80267046 122.73489744 1717.3903796 128.87777734 C1719.44711539 130.7735512 1721.5272494 132.59684447 1723.65209835 134.41293359 C1728.84826906 138.9437112 1733.69624854 143.82280718 1738.55859249 148.70468164 C1740.14529156 150.296742 1741.73726952 151.88338224 1743.32983273 153.46957422 C1748.79129244 158.92677232 1754.11565144 164.44804663 1759.0856921 170.36215234 C1759.62492306 170.9946792 1760.16415401 171.62720605 1760.7197253 172.27890039 C1803.90789174 223.17582643 1834.82685457 283.8144972 1848.0856921 349.36215234 C1848.36920528 350.72581933 1848.36920528 350.72581933 1848.65844601 352.11703515 C1857.39235786 395.08441 1861.35837796 444.24148313 1852.0856921 487.36215234 C1851.85494991 488.4585 1851.62420773 489.55484765 1851.38647335 490.68441797 C1844.96955837 520.34142982 1834.10577296 548.58240991 1822.0856921 576.36215234 C1821.5892419 577.51586328 1821.09279171 578.66957422 1820.58129757 579.85824609 C1797.11016674 634.21405281 1766.04146557 683.80361126 1727.49047726 728.71908594 C1726.06970028 730.38085672 1724.66066457 732.05199212 1723.25366085 733.72543359 C1716.23185127 742.04569151 1708.88653793 750.01757749 1701.39184444 757.91244531 C1699.60119043 759.81456498 1697.82190086 761.72525921 1696.04907101 763.64389062 C1687.95101488 772.39587491 1679.66896604 780.93602506 1671.22436398 789.35385156 C1669.18736789 791.38541434 1667.15587259 793.4223707 1665.1247546 795.45980859 C1663.80215893 796.78174441 1662.47925361 798.10337051 1661.1560046 799.42465234 C1660.56312649 800.01955469 1659.97024837 800.61445703 1659.35940426 801.22738672 C1655.6575396 804.90895244 1651.83127079 808.39483412 1647.8709399 811.79708887 C1645.31391603 814.03874107 1642.96167652 816.42891528 1640.5856921 818.86215234 C1636.83419416 822.67084568 1632.97979441 826.2818211 1628.9138171 829.75277734 C1626.47776813 831.89733327 1624.23070306 834.20475222 1621.95873898 836.52035547 C1620.15615112 838.29286886 1618.29961249 839.94926646 1616.3825671 841.59652734 C1612.09342705 845.32587154 1607.95759108 849.1998253 1603.8356921 853.11215234 C1597.97014952 858.65685344 1592.0676578 864.15220552 1586.10522335 869.59262109 C1582.59540653 872.80243353 1579.1221764 876.05115992 1575.6481921 879.29965234 C1569.34813496 885.18994967 1563.02177943 891.05072297 1556.67846554 896.8943789 C1553.97919251 899.38181444 1551.28256227 901.87211224 1548.5856921 904.36215234 C1545.3603961 907.34009191 1542.13464046 910.31752114 1538.9060046 913.29183984 C1533.09269169 918.64927647 1527.29795889 924.02567108 1521.5231921 929.42465234 C1516.05823354 934.53326108 1510.56370027 939.60715959 1505.04272335 944.65512109 C1500.2512591 949.03703113 1495.48686799 953.44834689 1490.71801632 957.85482812 C1489.11373849 959.33625368 1487.50814844 960.81624227 1485.90209835 962.29574609 C1480.08989352 967.65167235 1474.29661558 973.02692698 1468.5231921 978.42465234 C1463.05823354 983.53326108 1457.56370027 988.60715959 1452.04272335 993.65512109 C1447.2512591 998.03703113 1442.48686799 1002.44834689 1437.71801632 1006.85482812 C1436.11373849 1008.33625368 1434.50814844 1009.81624227 1432.90209835 1011.29574609 C1427.08989391 1016.65167199 1421.29656777 1022.02687621 1415.5231921 1027.42465234 C1410.10552556 1032.48986078 1404.654038 1037.51473942 1399.1794421 1042.51840234 C1395.62591745 1045.77579994 1392.10623781 1049.06919747 1388.5856921 1052.36215234 C1383.14758174 1057.44870809 1377.67582498 1062.49482659 1372.1794421 1067.51840234 C1368.62591745 1070.77579994 1365.10623781 1074.06919747 1361.5856921 1077.36215234 C1356.14758174 1082.44870809 1350.67582498 1087.49482659 1345.1794421 1092.51840234 C1341.62591707 1095.77580029 1338.10626676 1099.06922788 1334.5856921 1102.36215234 C1329.10031036 1107.49211578 1323.58547237 1112.58725284 1318.04272335 1117.65512109 C1313.2512591 1122.03703113 1308.48686799 1126.44834689 1303.71801632 1130.85482812 C1302.11373849 1132.33625368 1300.50814844 1133.81624227 1298.90209835 1135.29574609 C1293.08989352 1140.65167235 1287.29661558 1146.02692698 1281.5231921 1151.42465234 C1276.05823354 1156.53326108 1270.56370027 1161.60715959 1265.04272335 1166.65512109 C1260.2512591 1171.03703113 1255.48686799 1175.44834689 1250.71801632 1179.85482812 C1249.11373849 1181.33625368 1247.50814844 1182.81624227 1245.90209835 1184.29574609 C1240.08989352 1189.65167235 1234.29661558 1195.02692698 1228.5231921 1200.42465234 C1223.05823354 1205.53326108 1217.56370027 1210.60715959 1212.04272335 1215.65512109 C1207.2512591 1220.03703113 1202.48686799 1224.44834689 1197.71801632 1228.85482812 C1196.11373849 1230.33625368 1194.50814844 1231.81624227 1192.90209835 1233.29574609 C1187.08989352 1238.65167235 1181.29661558 1244.02692698 1175.5231921 1249.42465234 C1170.05823354 1254.53326108 1164.56370027 1259.60715959 1159.04272335 1264.65512109 C1155.90236051 1267.52705893 1152.77430396 1270.41221768 1149.6481921 1273.29965234 C1149.10791378 1273.79868066 1148.56763546 1274.29770898 1148.01098507 1274.81185937 C1146.91620904 1275.82319906 1145.8214826 1276.83459242 1144.72680538 1277.84603906 C1142.55478768 1279.85261893 1140.38193137 1281.85828926 1138.20898312 1283.86386133 C1137.12476102 1284.86459392 1136.04061416 1285.86540803 1134.95654171 1286.86630273 C1132.27420955 1289.3427656 1129.59103734 1291.81830506 1126.9060046 1294.29183984 C1121.09269169 1299.64927647 1115.29795889 1305.02567108 1109.5231921 1310.42465234 C1104.05823354 1315.53326108 1098.56370027 1320.60715959 1093.04272335 1325.65512109 C1088.2512591 1330.03703113 1083.48686799 1334.44834689 1078.71801632 1338.85482812 C1077.11373849 1340.33625368 1075.50814844 1341.81624227 1073.90209835 1343.29574609 C1068.08989352 1348.65167235 1062.29661558 1354.02692698 1056.5231921 1359.42465234 C1051.05823354 1364.53326108 1045.56370027 1369.60715959 1040.04272335 1374.65512109 C1036.90236051 1377.52705893 1033.77430396 1380.41221768 1030.6481921 1383.29965234 C1030.10791378 1383.79868066 1029.56763546 1384.29770898 1029.01098507 1384.81185937 C1027.91620904 1385.82319906 1026.8214826 1386.83459242 1025.72680538 1387.84603906 C1023.55478768 1389.85261893 1021.38193137 1391.85828926 1019.20898312 1393.86386133 C1018.12476102 1394.86459392 1017.04061416 1395.86540803 1015.95654171 1396.86630273 C1013.27420955 1399.3427656 1010.59103734 1401.81830506 1007.9060046 1404.29183984 C1002.09269169 1409.64927647 996.29795889 1415.02567108 990.5231921 1420.42465234 C985.05823354 1425.53326108 979.56370027 1430.60715959 974.04272335 1435.65512109 C969.2512591 1440.03703113 964.48686799 1444.44834689 959.71801632 1448.85482812 C958.11373849 1450.33625368 956.50814844 1451.81624227 954.90209835 1453.29574609 C949.08989352 1458.65167235 943.29661558 1464.02692698 937.5231921 1469.42465234 C932.05823354 1474.53326108 926.56370027 1479.60715959 921.04272335 1484.65512109 C917.90236051 1487.52705893 914.77430396 1490.41221768 911.6481921 1493.29965234 C911.10791378 1493.79868066 910.56763546 1494.29770898 910.01098507 1494.81185937 C908.91620904 1495.82319906 907.8214826 1496.83459242 906.72680538 1497.84603906 C904.55478768 1499.85261893 902.38193137 1501.85828926 900.20898312 1503.86386133 C899.12476102 1504.86459392 898.04061416 1505.86540803 896.95654171 1506.86630273 C894.27420955 1509.3427656 891.59103734 1511.81830506 888.9060046 1514.29183984 C883.09269208 1519.64927612 877.29791107 1525.0256203 871.5231921 1530.42465234 C866.10552556 1535.48986078 860.654038 1540.51473942 855.1794421 1545.51840234 C851.62591707 1548.77580029 848.10626676 1552.06922788 844.5856921 1555.36215234 C839.10031036 1560.49211578 833.58547237 1565.58725284 828.04272335 1570.65512109 C824.90236051 1573.52705893 821.77430396 1576.41221768 818.6481921 1579.29965234 C818.10791378 1579.79868066 817.56763546 1580.29770898 817.01098507 1580.81185937 C815.91620904 1581.82319906 814.8214826 1582.83459242 813.72680538 1583.84603906 C811.55478768 1585.85261893 809.38193137 1587.85828926 807.20898312 1589.86386133 C806.12476102 1590.86459392 805.04061416 1591.86540803 803.95654171 1592.86630273 C801.27420955 1595.3427656 798.59103734 1597.81830506 795.9060046 1600.29183984 C790.09269169 1605.64927647 784.29795889 1611.02567108 778.5231921 1616.42465234 C773.05823354 1621.53326108 767.56370027 1626.60715959 762.04272335 1631.65512109 C758.90236051 1634.52705893 755.77430396 1637.41221768 752.6481921 1640.29965234 C752.10791378 1640.79868066 751.56763546 1641.29770898 751.01098507 1641.81185937 C749.91620904 1642.82319906 748.8214826 1643.83459242 747.72680538 1644.84603906 C745.01391624 1647.35229339 742.29974351 1649.8571568 739.5856921 1652.36215234 C738.50235253 1653.36214558 737.41901919 1654.36214558 736.3356921 1655.36215234 C690.8356921 1697.36215234 690.8356921 1697.36215234 689.21118038 1698.86166406 C688.12616954 1699.8632376 687.04120872 1700.86486534 685.95629757 1701.86654687 C683.27403453 1704.34291506 680.59095276 1706.81838298 677.9060046 1709.29183984 C672.09269208 1714.64927612 666.29791107 1720.0256203 660.5231921 1725.42465234 C656.06444137 1729.59332932 651.59103063 1733.74384961 647.0856921 1737.86215234 C640.68161671 1743.71755193 634.34198244 1749.64075597 628.00463741 1755.56820703 C625.50599043 1757.90409227 623.00448513 1760.23690362 620.50292843 1762.56967187 C618.01529027 1764.88998305 615.52912682 1767.21187045 613.04321163 1769.53402734 C611.69038147 1770.79743371 610.33716669 1772.06042831 608.98364132 1773.32308984 C606.84984423 1775.31405277 604.71762244 1777.30669081 602.5856921 1779.29965234 C601.93930782 1779.90220849 601.29292355 1780.50476465 600.62695187 1781.12558008 C597.48374924 1784.06686216 594.38841037 1787.04162011 591.35522335 1790.09652734 C589.07115836 1792.39631574 586.75988759 1794.59211504 584.2731921 1796.67465234 C581.06235455 1799.43833263 578.06302045 1802.3483483 575.0856921 1805.36215234 C571.54337011 1808.94773933 567.91013549 1812.31106896 564.08178585 1815.58480859 C561.0203957 1818.31070393 558.18604046 1821.25356592 555.30834835 1824.17074609 C552.6586777 1826.78316302 549.87396407 1829.19517855 547.05053585 1831.61605859 C544.27144696 1834.08574594 541.69708714 1836.74118556 539.08959835 1839.38949609 C536.50323059 1841.93553064 533.7703393 1844.28236791 531.01928585 1846.64730859 C528.55448539 1848.83326294 526.26720722 1851.16752919 523.96093624 1853.5181582 C522.14995135 1855.29896394 520.28442574 1856.96416099 518.3591296 1858.61996484 C514.21174636 1862.22580471 510.20245581 1865.96073635 506.2106921 1869.73715234 C501.03231742 1874.61443094 495.823601 1879.44617302 490.5153796 1884.18246484 C487.64175677 1886.76040944 484.80126424 1889.37292588 481.9606921 1891.98715234 C476.34238778 1897.14737583 470.63588621 1902.18516362 464.8356921 1907.13949609 C463.62731262 1908.17199418 462.4189806 1909.2045478 461.2106921 1910.23715234 C460.6020129 1910.75696679 459.9933337 1911.27678125 459.36620968 1911.81234765 C455.82907152 1914.8413389 452.34159679 1917.91379257 448.8981921 1921.04965234 C445.63953504 1924.00677783 442.31707639 1926.84185051 438.8981921 1929.61215234 C436.9587758 1931.19313783 435.02149976 1932.77675037 433.0856921 1934.36215234 C432.13678097 1935.13728174 432.13678097 1935.13728174 431.16869991 1935.92807031 C429.10845388 1937.6216457 427.0647816 1939.33365381 425.0231921 1941.04965234 C424.03959713 1941.85161035 424.03959713 1941.85161035 423.03613155 1942.66976953 C422.42213497 1943.19087304 421.80813839 1943.71197656 421.17553585 1944.24887109 C420.62760372 1944.70479638 420.07967159 1945.16072168 419.51513546 1945.63046289 C417.57855544 1947.97651961 416.99216941 1950.48366425 416.0856921 1953.36215234 C328.37690871 1953.42611219 240.66812092 1953.48797325 134.13183468 1953.5315249 C132.72748468 1953.5320827 131.32313468 1953.53264051 129.91878469 1953.53319832 C100.44172205 1953.54488882 70.96465916 1953.55575571 41.48759588 1953.56567105 C26.68049904 1953.57065267 11.87340227 1953.57579256 -2.93369446 1953.58108211 C-5.1673023 1953.5818791 -7.40091015 1953.58267158 -9.63451799 1953.58346386 C-44.03277819 1953.59570516 -78.43103274 1953.61134296 -112.82928593 1953.63681054 C-113.56899348 1953.63735814 -114.30870103 1953.63790574 -115.07082396 1953.63846992 C-126.99725422 1953.64731951 -138.92368427 1953.65645391 -150.85011429 1953.6656261 C-185.19796727 1953.69203747 -219.5458159 1953.71634613 -253.89367802 1953.72671152 C-254.59987625 1953.72692566 -255.30607448 1953.7271398 -256.03367266 1953.72736043 C-271.53569402 1953.73202326 -287.03771543 1953.73560278 -302.53973727 1953.73815627 C-308.77704128 1953.73920277 -315.01434525 1953.74040525 -321.25164921 1953.74166131 C-322.27562369 1953.74186188 -322.27562369 1953.74186188 -323.32028453 1953.74206649 C-345.3225887 1953.74645364 -367.32486056 1953.76354254 -389.32715169 1953.78728118 C-412.10339852 1953.81179517 -434.87961866 1953.82221363 -457.65588082 1953.81615785 C-470.79388101 1953.8131083 -483.93176412 1953.82129089 -497.06974324 1953.84534251 C-505.83736929 1953.86030123 -514.60491835 1953.86083587 -523.37254965 1953.8494796 C-528.37372499 1953.84341957 -533.37467836 1953.84378486 -538.37583024 1953.86168507 C-542.92322108 1953.87783805 -547.47021614 1953.87566497 -552.0176007 1953.85871224 C-553.65472527 1953.85584916 -555.29187867 1953.85973141 -556.92896631 1953.87109332 C-572.2437186 1953.97066528 -572.2437186 1953.97066528 -578.9143079 1949.36215234 C-584.43740801 1942.42287272 -584.61365526 1935.9630811 -583.9143079 1927.36215234 C-580.60421333 1918.33462169 -571.54203574 1912.66034063 -564.2893079 1906.79965234 C-560.20078111 1903.49317849 -556.46397513 1900.02728198 -552.8049329 1896.25668359 C-550.93187318 1894.37975391 -548.99045486 1892.64893665 -546.9768079 1890.92465234 C-543.98629074 1888.35549964 -541.18314106 1885.66897978 -538.4143079 1882.86215234 C-535.68601383 1880.09654827 -532.92913956 1877.44928203 -529.9768079 1874.92465234 C-526.8039487 1872.20595986 -523.85092408 1869.33463559 -520.9143079 1866.36215234 C-517.37198591 1862.77656535 -513.73875129 1859.41323572 -509.91040165 1856.13949609 C-506.8490115 1853.41360076 -504.01465626 1850.47073876 -501.13696415 1847.55355859 C-498.4872935 1844.94114166 -495.70257987 1842.52912613 -492.87915165 1840.10824609 C-490.80610466 1838.26599559 -488.85994988 1836.33813572 -486.9143079 1834.36215234 C-484.35440656 1831.76233051 -481.7465125 1829.29946836 -478.9768079 1826.92465234 C-475.98629074 1824.35549964 -473.18314106 1821.66897978 -470.4143079 1818.86215234 C-467.03189391 1815.43332444 -463.53360348 1812.24166716 -459.87915165 1809.10824609 C-457.09868958 1806.63733845 -454.52312572 1803.98048294 -451.9143079 1801.33090234 C-449.35125562 1798.80789775 -446.64084966 1796.48652417 -443.9143079 1794.14340234 C-441.83093712 1792.28790024 -439.87149583 1790.34992133 -437.9143079 1788.36215234 C-435.35440656 1785.76233051 -432.7465125 1783.29946836 -429.9768079 1780.92465234 C-426.98629074 1778.35549964 -424.18314106 1775.66897978 -421.4143079 1772.86215234 C-418.03189391 1769.43332444 -414.53360348 1766.24166716 -410.87915165 1763.10824609 C-408.09868958 1760.63733845 -405.52312572 1757.98048294 -402.9143079 1755.33090234 C-400.35125562 1752.80789775 -397.64084966 1750.48652417 -394.9143079 1748.14340234 C-392.83093712 1746.28790024 -390.87149583 1744.34992133 -388.9143079 1742.36215234 C-385.71401268 1739.11185251 -382.37206214 1736.11490989 -378.9143079 1733.14340234 C-376.83093712 1731.28790024 -374.87149583 1729.34992133 -372.9143079 1727.36215234 C-369.71401268 1724.11185251 -366.37206214 1721.11490989 -362.9143079 1718.14340234 C-360.83093712 1716.28790024 -358.87149583 1714.34992133 -356.9143079 1712.36215234 C-354.35440656 1709.76233051 -351.7465125 1707.29946836 -348.9768079 1704.92465234 C-345.98629074 1702.35549964 -343.18314106 1699.66897978 -340.4143079 1696.86215234 C-337.03189391 1693.43332444 -333.53360348 1690.24166716 -329.87915165 1687.10824609 C-327.80610466 1685.26599559 -325.85994988 1683.33813572 -323.9143079 1681.36215234 C-321.35440656 1678.76233051 -318.7465125 1676.29946836 -315.9768079 1673.92465234 C-312.98629074 1671.35549964 -310.18314106 1668.66897978 -307.4143079 1665.86215234 C-304.05316308 1662.45496444 -300.57729587 1659.2875706 -296.9455579 1656.17465234 C-294.67792218 1654.15122354 -292.5485384 1652.02561887 -290.4143079 1649.86215234 C-287.05316308 1646.45496444 -283.57729587 1643.2875706 -279.9455579 1640.17465234 C-277.67792218 1638.15122354 -275.5485384 1636.02561887 -273.4143079 1633.86215234 C-270.05316308 1630.45496444 -266.57729587 1627.2875706 -262.9455579 1624.17465234 C-260.67792218 1622.15122354 -258.5485384 1620.02561887 -256.4143079 1617.86215234 C-253.68601383 1615.09654827 -250.92913956 1612.44928203 -247.9768079 1609.92465234 C-244.8039487 1607.20595986 -241.85092408 1604.33463559 -238.9143079 1601.36215234 C-235.37198591 1597.77656535 -231.73875129 1594.41323572 -227.91040165 1591.13949609 C-225.65298164 1589.12946458 -223.53695077 1587.01382281 -221.4143079 1584.86215234 C-218.68601383 1582.09654827 -215.92913956 1579.44928203 -212.9768079 1576.92465234 C-209.8039487 1574.20595986 -206.85092408 1571.33463559 -203.9143079 1568.36215234 C-200.37198591 1564.77656535 -196.73875129 1561.41323572 -192.91040165 1558.13949609 C-189.84764063 1555.41238012 -187.01207297 1552.46810597 -184.1330579 1549.54965234 C-181.50659668 1546.96018353 -178.74454332 1544.5737827 -175.9455579 1542.17465234 C-173.67792218 1540.15122354 -171.5485384 1538.02561887 -169.4143079 1535.86215234 C-166.05316308 1532.45496444 -162.57729587 1529.2875706 -158.9455579 1526.17465234 C-156.67792218 1524.15122354 -154.5485384 1522.02561887 -152.4143079 1519.86215234 C-149.05316308 1516.45496444 -145.57729587 1513.2875706 -141.9455579 1510.17465234 C-139.67792218 1508.15122354 -137.5485384 1506.02561887 -135.4143079 1503.86215234 C-132.05316308 1500.45496444 -128.57729587 1497.2875706 -124.9455579 1494.17465234 C-121.87456473 1491.43438151 -119.02643914 1488.48268332 -116.13696415 1485.55355859 C-113.4872935 1482.94114166 -110.70257987 1480.52912613 -107.87915165 1478.10824609 C-105.80610466 1476.26599559 -103.85994988 1474.33813572 -101.9143079 1472.36215234 C-99.35440656 1469.76233051 -96.7465125 1467.29946836 -93.9768079 1464.92465234 C-90.98629074 1462.35549964 -88.18314106 1459.66897978 -85.4143079 1456.86215234 C-82.03189391 1453.43332444 -78.53360348 1450.24166716 -74.87915165 1447.10824609 C-72.80610466 1445.26599559 -70.85994988 1443.33813572 -68.9143079 1441.36215234 C-66.35440656 1438.76233051 -63.7465125 1436.29946836 -60.9768079 1433.92465234 C-57.98629074 1431.35549964 -55.18314106 1428.66897978 -52.4143079 1425.86215234 C-49.03189391 1422.43332444 -45.53360348 1419.24166716 -41.87915165 1416.10824609 C-39.09868958 1413.63733845 -36.52312572 1410.98048294 -33.9143079 1408.33090234 C-31.35125562 1405.80789775 -28.64084966 1403.48652417 -25.9143079 1401.14340234 C-23.83093712 1399.28790024 -21.87149583 1397.34992133 -19.9143079 1395.36215234 C-17.35440656 1392.76233051 -14.7465125 1390.29946836 -11.9768079 1387.92465234 C-8.98629074 1385.35549964 -6.18314106 1382.66897978 -3.4143079 1379.86215234 C-0.03189391 1376.43332444 3.46639652 1373.24166716 7.12084835 1370.10824609 C9.90131042 1367.63733845 12.47687428 1364.98048294 15.0856921 1362.33090234 C17.64874438 1359.80789775 20.35915034 1357.48652417 23.0856921 1355.14340234 C25.16906288 1353.28790024 27.12850417 1351.34992133 29.0856921 1349.36215234 C32.28598732 1346.11185251 35.62793786 1343.11490989 39.0856921 1340.14340234 C41.16906288 1338.28790024 43.12850417 1336.34992133 45.0856921 1334.36215234 C48.28598732 1331.11185251 51.62793786 1328.11490989 55.0856921 1325.14340234 C57.16906288 1323.28790024 59.12850417 1321.34992133 61.0856921 1319.36215234 C64.28598732 1316.11185251 67.62793786 1313.11490989 71.0856921 1310.14340234 C73.79415873 1307.73117425 76.31721855 1305.15807137 78.8356921 1302.54965234 C80.78386525 1300.65559511 82.77283537 1298.87265039 84.82397335 1297.09262109 C89.08019319 1293.39536839 93.18399313 1289.55478234 97.2731921 1285.67465234 C102.90611469 1280.35092089 108.5603483 1275.05380016 114.2653796 1269.80746484 C118.45536722 1265.95184033 122.61613134 1262.06572771 126.7731921 1258.17465234 C131.61292459 1253.64708199 136.49553854 1249.17694074 141.4372546 1244.76058984 C145.47161332 1241.10705555 149.43732499 1237.38084566 153.41113155 1233.66171289 C159.26453138 1228.18618984 165.16831914 1222.76844315 171.0856921 1217.36215234 C173.08642872 1215.52962215 175.08606836 1213.69589673 177.0856921 1211.86215234 C180.07324595 1209.123076 183.0611451 1206.38438018 186.05053585 1203.64730859 C192.86403894 1197.40766857 199.65883435 1191.14807585 206.44457882 1184.87826562 C209.15746796 1182.3720113 211.87164069 1179.86714789 214.5856921 1177.36215234 C215.66903167 1176.3621591 216.75236501 1175.3621591 217.8356921 1174.36215234 C224.33569209 1168.36215235 224.33569209 1168.36215235 225.96020382 1166.86264062 C227.04521466 1165.86106708 228.13017548 1164.85943934 229.21508663 1163.85775781 C231.89734967 1161.38138962 234.58043144 1158.9059217 237.2653796 1156.43246484 C244.93356505 1149.36589002 252.56473369 1142.26047351 260.18286007 1135.13998437 C262.67589009 1132.81072538 265.17108913 1130.48379684 267.66625851 1128.15683008 C270.1545548 1125.83570699 272.64150098 1123.51314081 275.12817257 1121.19027734 C276.48100273 1119.92687098 277.83421751 1118.66387637 279.18774288 1117.40121484 C281.32153997 1115.41025191 283.45376176 1113.41761388 285.5856921 1111.42465234 C286.23207638 1110.82209619 286.87846065 1110.21954004 287.54443233 1109.59872461 C291.26091777 1106.12098762 294.89722628 1102.58156853 298.46411007 1098.95028711 C300.15196271 1097.29724865 301.90728113 1095.76258822 303.7106921 1094.23715234 C308.09410158 1090.46776131 312.12866632 1086.37686547 316.16625851 1082.24447656 C318.94066867 1079.42535945 321.76536925 1076.74441279 324.7731921 1074.17465234 C330.33341888 1069.36997791 335.4283673 1064.08955402 340.5856921 1058.86215234 C352.3087746 1046.97977852 352.3087746 1046.97977852 358.49584835 1041.72714258 C360.46336496 1040.03789421 362.29037344 1038.23227595 364.0856921 1036.36215234 C358.90504859 1024.25874868 344.47889117 1013.60072343 335.31445187 1004.46054101 C332.8887258 1002.04020708 330.46843412 999.61453014 328.04858273 997.18832422 C326.48445035 995.62485222 324.92000804 994.06169022 323.35522335 992.49887109 C322.64356518 991.78518869 321.93190701 991.07150628 321.19868343 990.33619714 C317.22347444 986.37929052 313.15650159 982.59428336 308.89286678 978.9491427 C305.80628153 976.23862385 302.95781854 973.29607117 300.0856921 970.36215234 C295.79327239 966.01950887 291.47034637 961.81539449 286.80834835 957.86605859 C284.40126378 955.76463556 282.19569837 953.48387718 279.95898312 951.20419336 C278.15121181 949.42657906 276.28903862 947.76472253 274.3669421 946.11215234 C269.47933107 941.86303328 264.78669761 937.42072201 260.0856921 932.96762109 C256.12690578 929.2330629 252.10151812 925.59986043 247.9919421 922.03207422 C245.13738279 919.53141007 242.3615396 916.94945818 239.5856921 914.36215234 C235.48084749 910.55395839 231.34436855 906.79898218 227.1091296 903.13558984 C224.57068039 900.91077142 222.07927434 898.63711915 219.5856921 896.36215234 C215.79906212 892.90887081 211.9809289 889.50116183 208.11303585 886.13949609 C205.75080037 884.06855747 203.41773357 881.96702387 201.0856921 879.86215234 C198.10506489 877.17231803 195.11323977 874.4990487 192.0856921 871.86215234 C189.05814443 869.22525598 186.06631931 866.55198665 183.0856921 863.86215234 C177.76234517 859.06307442 172.39705871 854.32137284 166.93334835 849.68246484 C160.35251031 844.08773495 153.88803312 838.40480122 147.56616085 832.51840234 C144.11199836 829.30245795 140.61133618 826.15697279 137.04272335 823.06918359 C134.7001006 821.02581804 132.39295788 818.94534375 130.0856921 816.86215234 C127.10506489 814.17231803 124.11323977 811.4990487 121.0856921 808.86215234 C117.19056399 805.46962141 113.35786447 802.01021034 109.5231921 798.54965234 C106.75071902 796.06153548 103.94724361 793.6114777 101.13647335 791.16683984 C98.82480413 789.13257093 96.5503778 787.05992924 94.2731921 784.98715234 C90.89628228 781.93356367 87.45352078 779.01786029 83.8981921 776.17465234 C77.83248992 771.27211748 72.20404233 765.93957197 66.5310046 760.59262109 C63.40793288 757.65182655 60.22297118 754.79816057 56.97241085 751.99887109 C54.64910423 749.98341462 52.36820745 747.92366772 50.0856921 745.86215234 C47.10506489 743.17231803 44.11323977 740.4990487 41.0856921 737.86215234 C38.05814443 735.22525598 35.06631931 732.55198665 32.0856921 729.86215234 C26.76234517 725.06307442 21.39705871 720.32137284 15.93334835 715.68246484 C9.35251031 710.08773495 2.88803312 704.40480122 -3.43383915 698.51840234 C-6.88800164 695.30245795 -10.38866382 692.15697279 -13.95727665 689.06918359 C-16.2998994 687.02581804 -18.60704212 684.94534375 -20.9143079 682.86215234 C-23.89493511 680.17231803 -26.88676023 677.4990487 -29.9143079 674.86215234 C-32.94185557 672.22525598 -35.93368069 669.55198665 -38.9143079 666.86215234 C-44.23765483 662.06307442 -49.60294129 657.32137284 -55.06665165 652.68246484 C-61.64748969 647.08773495 -68.11196688 641.40480122 -74.43383915 635.51840234 C-77.88800164 632.30245795 -81.38866382 629.15697279 -84.95727665 626.06918359 C-87.2998994 624.02581804 -89.60704212 621.94534375 -91.9143079 619.86215234 C-94.89493511 617.17231803 -97.88676023 614.4990487 -100.9143079 611.86215234 C-103.94185557 609.22525598 -106.93368069 606.55198665 -109.9143079 603.86215234 C-115.23765483 599.06307442 -120.60294129 594.32137284 -126.06665165 589.68246484 C-132.64748969 584.08773495 -139.11196688 578.40480122 -145.43383915 572.51840234 C-148.88800164 569.30245795 -152.38866382 566.15697279 -155.95727665 563.06918359 C-158.2998994 561.02581804 -160.60704212 558.94534375 -162.9143079 556.86215234 C-165.89493511 554.17231803 -168.88676023 551.4990487 -171.9143079 548.86215234 C-174.94185557 546.22525598 -177.93368069 543.55198665 -180.9143079 540.86215234 C-186.23765483 536.06307442 -191.60294129 531.32137284 -197.06665165 526.68246484 C-203.64748969 521.08773495 -210.11196688 515.40480122 -216.43383915 509.51840234 C-219.88800164 506.30245795 -223.38866382 503.15697279 -226.95727665 500.06918359 C-229.2998994 498.02581804 -231.60704212 495.94534375 -233.9143079 493.86215234 C-236.89493511 491.17231803 -239.88676023 488.4990487 -242.9143079 485.86215234 C-245.94185557 483.22525598 -248.93368069 480.55198665 -251.9143079 477.86215234 C-257.23765483 473.06307442 -262.60294129 468.32137284 -268.06665165 463.68246484 C-274.64748969 458.08773495 -281.11196688 452.40480122 -287.43383915 446.51840234 C-290.88800164 443.30245795 -294.38866382 440.15697279 -297.95727665 437.06918359 C-300.2998994 435.02581804 -302.60704212 432.94534375 -304.9143079 430.86215234 C-307.89493511 428.17231803 -310.88676023 425.4990487 -313.9143079 422.86215234 C-316.94185557 420.22525598 -319.93368069 417.55198665 -322.9143079 414.86215234 C-328.23765483 410.06307442 -333.60294129 405.32137284 -339.06665165 400.68246484 C-345.64748969 395.08773495 -352.11196688 389.40480122 -358.43383915 383.51840234 C-361.88800164 380.30245795 -365.38866382 377.15697279 -368.95727665 374.06918359 C-371.2998994 372.02581804 -373.60704212 369.94534375 -375.9143079 367.86215234 C-378.89493511 365.17231803 -381.88676023 362.4990487 -384.9143079 359.86215234 C-387.94185557 357.22525598 -390.93368069 354.55198665 -393.9143079 351.86215234 C-399.23765483 347.06307442 -404.60294129 342.32137284 -410.06665165 337.68246484 C-416.64748969 332.08773495 -423.11196688 326.40480122 -429.43383915 320.51840234 C-432.88800164 317.30245795 -436.38866382 314.15697279 -439.95727665 311.06918359 C-442.2998994 309.02581804 -444.60704212 306.94534375 -446.9143079 304.86215234 C-449.89493511 302.17231803 -452.88676023 299.4990487 -455.9143079 296.86215234 C-459.80943601 293.46962141 -463.64213553 290.01021034 -467.4768079 286.54965234 C-470.24928098 284.06153548 -473.05275639 281.6114777 -475.86352665 279.16683984 C-478.17519587 277.13257093 -480.4496222 275.05992924 -482.7268079 272.98715234 C-486.10371772 269.93356367 -489.54647922 267.01786029 -493.1018079 264.17465234 C-499.16751008 259.27211748 -504.79595767 253.93957197 -510.4689954 248.59262109 C-513.59206712 245.65182655 -516.77702882 242.79816057 -520.02758915 239.99887109 C-522.35089577 237.98341462 -524.63179255 235.92366772 -526.9143079 233.86215234 C-529.89493511 231.17231803 -532.88676023 228.4990487 -535.9143079 225.86215234 C-538.94185557 223.22525598 -541.93368069 220.55198665 -544.9143079 217.86215234 C-550.23765483 213.06307442 -555.60294129 208.32137284 -561.06665165 203.68246484 C-567.64748969 198.08773495 -574.11196688 192.40480122 -580.43383915 186.51840234 C-583.88800164 183.30245795 -587.38866382 180.15697279 -590.95727665 177.06918359 C-593.2998994 175.02581804 -595.60704212 172.94534375 -597.9143079 170.86215234 C-600.89493511 168.17231803 -603.88676023 165.4990487 -606.9143079 162.86215234 C-609.94185557 160.22525598 -612.93368069 157.55198665 -615.9143079 154.86215234 C-621.23765483 150.06307442 -626.60294129 145.32137284 -632.06665165 140.68246484 C-638.64748969 135.08773495 -645.11196688 129.40480122 -651.43383915 123.51840234 C-654.88800164 120.30245795 -658.38866382 117.15697279 -661.95727665 114.06918359 C-664.2998994 112.02581804 -666.60704212 109.94534375 -668.9143079 107.86215234 C-671.89493511 105.17231803 -674.88676023 102.4990487 -677.9143079 99.86215234 C-680.94185557 97.22525598 -683.93368069 94.55198665 -686.9143079 91.86215234 C-692.23765483 87.06307442 -697.60294129 82.32137284 -703.06665165 77.68246484 C-709.64748969 72.08773495 -716.11196688 66.40480122 -722.43383915 60.51840234 C-725.88455954 57.30566267 -729.38275175 54.1642582 -732.9455579 51.07699609 C-751.42296281 34.98258983 -751.42296281 34.98258983 -752.28540165 28.62777734 C-752.41827858 22.59360163 -752.03849724 18.22545213 -748.7893079 13.08090234 C-741.15738773 6.08497552 -732.21278907 6.72295382 -722.49051029 6.65367151 C-720.77225258 6.62721381 -719.05401934 6.59912698 -717.33581204 6.56957609 C-712.55240157 6.49276051 -707.76899883 6.44134494 -702.98521341 6.39444176 C-698.80646466 6.35050379 -694.62795305 6.29256346 -690.4493761 6.23479473 C-676.5623257 6.04336153 -662.67492826 5.89696311 -648.78725967 5.7588642 C-641.79958312 5.68928135 -634.81194526 5.61608886 -627.82430541 5.54292982 C-610.91154773 5.36602855 -593.99873077 5.19516402 -577.08590426 5.02499489 C-569.00104766 4.94360133 -560.91619924 4.86140945 -552.83135165 4.77912694 C-524.89694918 4.49483863 -496.96253476 4.21177239 -469.02807552 3.93311239 C-467.73043598 3.92016567 -467.73043598 3.92016567 -466.40658149 3.9069574 C-462.90310365 3.8720028 -459.39962577 3.83705175 -455.89614789 3.80210058 C-453.26125069 3.77581391 -450.62635351 3.74952524 -447.99145634 3.72323633 C-447.12073039 3.71455016 -446.25000444 3.70586399 -445.35289286 3.6969146 C-419.19672414 3.43594139 -393.04061993 3.16924869 -366.88456125 2.89747529 C-286.01716384 2.05738904 -205.14953425 1.22001808 0 0 Z " fill="#1E5585" transform="translate(751.9143078997731,-0.3621523417532444)"/>
<path d="M0 0 C4.12633574 1.5863036 6.63273207 4.59198391 9.5 7.8125 C10.57266857 8.99762043 11.6455923 10.18250997 12.71875 11.3671875 C13.53666016 12.27549316 13.53666016 12.27549316 14.37109375 13.20214844 C15.91041705 14.90112578 17.46574535 16.58296778 19.03125 18.2578125 C24.74384485 24.37087985 30.28831294 30.59608643 35.7043457 36.97363281 C38.64337094 40.43176489 41.62995723 43.83269612 44.6875 47.1875 C48.48702711 51.37584766 52.07501483 55.70385284 55.62890625 60.1015625 C57.69658337 62.62910191 59.80593496 65.11354083 61.93725586 67.58740234 C66.97968615 73.45427401 71.71039901 79.4930387 76.31005859 85.71240234 C79.52644866 90.05684473 82.81672915 94.33027442 86.16821289 98.57128906 C92.86975807 107.06034449 99.08345883 115.78655374 105.12109375 124.7578125 C107.31159993 128.00924559 109.57995346 131.17911543 111.9375 134.3125 C163.97032194 205.31562161 199.90592947 291.79822176 220 470 C219.99524658 471.07443359 219.99049316 472.14886719 219.9855957 473.25585938 C219.45649836 533.27449142 208.30956265 592.95867021 190 650 C189.60167969 651.24716797 189.20335937 652.49433594 188.79296875 653.77929688 C176.95206264 690.71750016 162.13231316 726.22523036 145 761 C144.44699219 762.13179687 143.89398437 763.26359375 143.32421875 764.4296875 C135.41466764 780.60588007 127.08717294 796.4524746 118 812 C117.37335449 813.07636719 116.74670898 814.15273437 116.10107422 815.26171875 C100.02852599 842.8169235 82.75258194 869.46659769 64.3125 895.5 C63.82845703 896.18336426 63.34441406 896.86672852 62.84570312 897.57080078 C62.39001953 898.21388184 61.93433594 898.85696289 61.46484375 899.51953125 C58.40135732 903.84050057 58.40135732 903.84050057 55.375 908.1875 C54.94960937 908.79980469 54.52421875 909.41210938 54.0859375 910.04296875 C52.675275 912.58520585 51.89415973 915.23953358 51 918 C-36.70878339 918.06395985 -124.41757118 918.12582091 -230.95385742 918.16937256 C-232.35820742 918.16993036 -233.76255742 918.17048817 -235.16690741 918.17104598 C-264.64397005 918.18273648 -294.12103294 918.19360337 -323.59809622 918.20351871 C-338.40519306 918.20850033 -353.21228983 918.21364022 -368.01938656 918.21892977 C-370.2529944 918.21972676 -372.48660225 918.22051923 -374.72021009 918.22131152 C-409.11847029 918.23355282 -443.51672484 918.24919062 -477.91497803 918.2746582 C-479.02453935 918.2754796 -479.02453935 918.2754796 -480.15651606 918.27631758 C-492.08294632 918.28516717 -504.00937637 918.29430157 -515.93580639 918.30347376 C-550.28365937 918.32988513 -584.631508 918.35419379 -618.97937012 918.36455917 C-619.68556835 918.36477331 -620.39176658 918.36498745 -621.11936476 918.36520808 C-636.62138612 918.36987092 -652.12340753 918.37345044 -667.62542938 918.37600393 C-673.86273338 918.37705043 -680.10003735 918.37825291 -686.33734131 918.37950897 C-687.36131579 918.37970954 -687.36131579 918.37970954 -688.40597663 918.37991415 C-710.4082808 918.3843013 -732.41055266 918.4013902 -754.41284379 918.42512883 C-777.18909062 918.44964282 -799.96531076 918.46006128 -822.74157292 918.45400551 C-835.87957311 918.45095596 -849.01745622 918.45913855 -862.15543534 918.48319017 C-870.92306139 918.49814889 -879.69061045 918.49868353 -888.45824175 918.48732725 C-893.45941709 918.48126723 -898.46037046 918.48163252 -903.46152234 918.49953273 C-908.00891318 918.5156857 -912.55590824 918.51351263 -917.1032928 918.4965599 C-918.74041737 918.49369682 -920.37757077 918.49757907 -922.01465841 918.50894098 C-937.32941071 918.60851294 -937.32941071 918.60851294 -944 914 C-949.52310011 907.06072038 -949.69934736 900.60092876 -949 892 C-945.68990543 882.97246935 -936.62772784 877.29818828 -929.375 871.4375 C-925.28647321 868.13102615 -921.54966723 864.66512964 -917.890625 860.89453125 C-916.01756528 859.01760157 -914.07614696 857.28678431 -912.0625 855.5625 C-909.07198284 852.99334729 -906.26883316 850.30682744 -903.5 847.5 C-900.77170593 844.73439592 -898.01483166 842.08712969 -895.0625 839.5625 C-891.8896408 836.84380752 -888.93661618 833.97248325 -886 831 C-882.45767801 827.41441301 -878.82444339 824.05108338 -874.99609375 820.77734375 C-871.9347036 818.05144841 -869.10034836 815.10858642 -866.22265625 812.19140625 C-863.5729856 809.57898932 -860.78827197 807.16697379 -857.96484375 804.74609375 C-855.89179676 802.90384325 -853.94564198 800.97598338 -852 799 C-849.44009866 796.40017817 -846.8322046 793.93731602 -844.0625 791.5625 C-841.07198284 788.99334729 -838.26883316 786.30682744 -835.5 783.5 C-832.11758601 780.0711721 -828.61929558 776.87951482 -824.96484375 773.74609375 C-822.18438168 771.27518611 -819.60881782 768.6183306 -817 765.96875 C-814.43694772 763.44574541 -811.72654176 761.12437183 -809 758.78125 C-806.91662922 756.9257479 -804.95718793 754.98776899 -803 753 C-800.44009866 750.40017817 -797.8322046 747.93731602 -795.0625 745.5625 C-792.07198284 742.99334729 -789.26883316 740.30682744 -786.5 737.5 C-783.11758601 734.0711721 -779.61929558 730.87951482 -775.96484375 727.74609375 C-773.18438168 725.27518611 -770.60881782 722.6183306 -768 719.96875 C-765.43694772 717.44574541 -762.72654176 715.12437183 -760 712.78125 C-757.91662922 710.9257479 -755.95718793 708.98776899 -754 707 C-750.79970478 703.74970017 -747.45775424 700.75275755 -744 697.78125 C-741.91662922 695.9257479 -739.95718793 693.98776899 -738 692 C-734.79970478 688.74970017 -731.45775424 685.75275755 -728 682.78125 C-725.91662922 680.9257479 -723.95718793 678.98776899 -722 677 C-719.44009866 674.40017817 -716.8322046 671.93731602 -714.0625 669.5625 C-711.07198284 666.99334729 -708.26883316 664.30682744 -705.5 661.5 C-702.11758601 658.0711721 -698.61929558 654.87951482 -694.96484375 651.74609375 C-692.89179676 649.90384325 -690.94564198 647.97598338 -689 646 C-686.44009866 643.40017817 -683.8322046 640.93731602 -681.0625 638.5625 C-678.07198284 635.99334729 -675.26883316 633.30682744 -672.5 630.5 C-669.13885518 627.0928121 -665.66298797 623.92541826 -662.03125 620.8125 C-659.76361428 618.7890712 -657.6342305 616.66346653 -655.5 614.5 C-652.13885518 611.0928121 -648.66298797 607.92541826 -645.03125 604.8125 C-642.76361428 602.7890712 -640.6342305 600.66346653 -638.5 598.5 C-635.13885518 595.0928121 -631.66298797 591.92541826 -628.03125 588.8125 C-625.76361428 586.7890712 -623.6342305 584.66346653 -621.5 582.5 C-618.77170593 579.73439592 -616.01483166 577.08712969 -613.0625 574.5625 C-609.8896408 571.84380752 -606.93661618 568.97248325 -604 566 C-600.45767801 562.41441301 -596.82444339 559.05108338 -592.99609375 555.77734375 C-590.73867374 553.76731223 -588.62264287 551.65167047 -586.5 549.5 C-583.77170593 546.73439592 -581.01483166 544.08712969 -578.0625 541.5625 C-574.8896408 538.84380752 -571.93661618 535.97248325 -569 533 C-565.45767801 529.41441301 -561.82444339 526.05108338 -557.99609375 522.77734375 C-554.93333273 520.05022777 -552.09776507 517.10595363 -549.21875 514.1875 C-546.59228878 511.59803119 -543.83023542 509.21163036 -541.03125 506.8125 C-538.76361428 504.7890712 -536.6342305 502.66346653 -534.5 500.5 C-531.13885518 497.0928121 -527.66298797 493.92541826 -524.03125 490.8125 C-521.76361428 488.7890712 -519.6342305 486.66346653 -517.5 484.5 C-514.13885518 481.0928121 -510.66298797 477.92541826 -507.03125 474.8125 C-504.76361428 472.7890712 -502.6342305 470.66346653 -500.5 468.5 C-497.13885518 465.0928121 -493.66298797 461.92541826 -490.03125 458.8125 C-486.96025683 456.07222917 -484.11213124 453.12053098 -481.22265625 450.19140625 C-478.5729856 447.57898932 -475.78827197 445.16697379 -472.96484375 442.74609375 C-470.89179676 440.90384325 -468.94564198 438.97598338 -467 437 C-464.44009866 434.40017817 -461.8322046 431.93731602 -459.0625 429.5625 C-456.07198284 426.99334729 -453.26883316 424.30682744 -450.5 421.5 C-447.11758601 418.0711721 -443.61929558 414.87951482 -439.96484375 411.74609375 C-437.89179676 409.90384325 -435.94564198 407.97598338 -434 406 C-431.44009866 403.40017817 -428.8322046 400.93731602 -426.0625 398.5625 C-423.07198284 395.99334729 -420.26883316 393.30682744 -417.5 390.5 C-414.11758601 387.0711721 -410.61929558 383.87951482 -406.96484375 380.74609375 C-404.18438168 378.27518611 -401.60881782 375.6183306 -399 372.96875 C-396.43694772 370.44574541 -393.72654176 368.12437183 -391 365.78125 C-388.91662922 363.9257479 -386.95718793 361.98776899 -385 360 C-382.44009866 357.40017817 -379.8322046 354.93731602 -377.0625 352.5625 C-374.07198284 349.99334729 -371.26883316 347.30682744 -368.5 344.5 C-365.11758601 341.0711721 -361.61929558 337.87951482 -357.96484375 334.74609375 C-355.18438168 332.27518611 -352.60881782 329.6183306 -350 326.96875 C-347.43694772 324.44574541 -344.72654176 322.12437183 -342 319.78125 C-339.91662922 317.9257479 -337.95718793 315.98776899 -336 314 C-332.79970478 310.74970017 -329.45775424 307.75275755 -326 304.78125 C-323.91662922 302.9257479 -321.95718793 300.98776899 -320 299 C-316.79970478 295.74970017 -313.45775424 292.75275755 -310 289.78125 C-307.91662922 287.9257479 -305.95718793 285.98776899 -304 284 C-300.79970478 280.74970017 -297.45775424 277.75275755 -294 274.78125 C-291.29153337 272.36902191 -288.76847355 269.79591903 -286.25 267.1875 C-284.30182685 265.29344277 -282.31285673 263.51049805 -280.26171875 261.73046875 C-276.00549891 258.03321604 -271.90169897 254.19263 -267.8125 250.3125 C-262.17957741 244.98876854 -256.5253438 239.69164781 -250.8203125 234.4453125 C-246.63032489 230.58968799 -242.46956076 226.70357537 -238.3125 222.8125 C-233.47276751 218.28492965 -228.59015356 213.8147884 -223.6484375 209.3984375 C-219.61407878 205.7449032 -215.64836711 202.01869331 -211.67456055 198.29956055 C-205.82116072 192.8240375 -199.91737296 187.40629081 -194 182 C-191.99926338 180.16746981 -189.99962374 178.33374439 -188 176.5 C-185.01244615 173.76092366 -182.024547 171.02222783 -179.03515625 168.28515625 C-172.22165316 162.04551623 -165.42685775 155.78592351 -158.64111328 149.51611328 C-155.92822414 147.00985896 -153.21405141 144.50499554 -150.5 142 C-149.41666043 141.00000676 -148.33332709 140.00000676 -147.25 139 C-140.75 133 -140.75 133 -139.12548828 131.50048828 C-138.04047744 130.49891474 -136.95551662 129.497287 -135.87060547 128.49560547 C-133.18834243 126.01923728 -130.50526066 123.54376936 -127.8203125 121.0703125 C-120.15212705 114.00373768 -112.52095841 106.89832117 -104.90283203 99.77783203 C-102.40980201 97.44857304 -99.91460297 95.12164449 -97.41943359 92.79467773 C-94.9311373 90.47355465 -92.44419112 88.15098846 -89.95751953 85.828125 C-88.60468937 84.56471864 -87.25147459 83.30172403 -85.89794922 82.0390625 C-83.76415213 80.04809957 -81.63193034 78.05546153 -79.5 76.0625 C-78.85361572 75.45994385 -78.20723145 74.8573877 -77.54125977 74.23657227 C-73.82477433 70.75883528 -70.18846582 67.21941619 -66.62158203 63.58813477 C-64.93372939 61.93509631 -63.17841097 60.40043588 -61.375 58.875 C-56.99159052 55.10560897 -52.95702578 51.01471313 -48.91943359 46.88232422 C-46.14502343 44.06320711 -43.32032285 41.38226045 -40.3125 38.8125 C-34.75227322 34.00782557 -29.6573248 28.72740168 -24.5 23.5 C-12.76770439 11.60828789 -12.76770439 11.60828789 -6.63867188 6.41381836 C-4.29709132 4.39354229 -2.15213826 2.21939258 0 0 Z " fill="#68929D" transform="translate(1117,1035)"/>
</svg>
