<?xml version="1.0" encoding="UTF-8"?>
<svg version="1.1" xmlns="http://www.w3.org/2000/svg" width="1056" height="942">
<path d="M0 0 C0.71644558 -0.00134616 1.43289116 -0.00269233 2.17104721 -0.00407928 C2.88552898 -0.00540798 3.60001076 -0.00673668 4.33614349 -0.00810564 C9.33811012 -0.01810273 14.3400138 -0.03572785 19.34194565 -0.05663055 C26.14554483 -0.08483842 32.94900963 -0.09626397 39.75266647 -0.09704536 C42.25641065 -0.0996539 44.76015589 -0.10727033 47.26386642 -0.12050956 C95.2337828 -0.35982579 131.65469321 13.97093842 166.61587143 46.72709137 C168.90904976 48.8633856 171.23609779 50.93411903 173.61196518 52.97709137 C176.7303525 55.67755049 179.62885265 58.53519497 182.51821518 61.47709137 C184.38336192 63.30951624 186.31874264 65.02062272 188.29946518 66.72709137 C191.49533089 69.4804526 194.4716069 72.37369736 197.42446518 75.38334137 C199.23281607 77.16155308 201.09549046 78.82398107 203.01821518 80.47709137 C207.90582621 84.72621043 212.59845967 89.1685217 217.29946518 93.62162262 C221.28991111 97.3860472 225.34441662 101.05450771 229.48696518 104.6509195 C231.78360812 106.64810792 234.04330989 108.68435618 236.29946518 110.72709137 C241.65963329 115.55936414 247.06956092 120.32527993 252.55727768 125.01224762 C253.76303194 126.04216616 254.96876041 127.0721149 256.17446518 128.10209137 C257.08724228 128.88157135 257.08724228 128.88157135 258.01845932 129.6767984 C261.55570376 132.7060167 265.04339095 135.7785772 268.48696518 138.91459137 C290.30363617 159.04681643 290.30363617 159.04681643 318.11977768 166.37943512 C324.55114396 165.92993103 330.47504012 164.71492864 335.29946518 160.22709137 C338.31945997 154.83625956 340.20190561 149.43136933 339.29946518 143.22709137 C335.10669623 128.45521667 319.51809545 117.71081034 308.35805893 108.03568512 C305.80989868 105.79697887 303.30535925 103.51298926 300.79946518 101.22709137 C297.65862962 98.36237322 294.50845762 95.51523235 291.29946518 92.72709137 C287.12217435 89.09764196 283.04409279 85.36230117 278.95571518 81.63334137 C276.75593777 79.64060184 274.539913 77.67370997 272.29946518 75.72709137 C268.12217435 72.09764196 264.04409279 68.36230117 259.95571518 64.63334137 C257.75593777 62.64060184 255.539913 60.67370997 253.29946518 58.72709137 C249.12217435 55.09764196 245.04409279 51.36230117 240.95571518 47.63334137 C238.75593777 45.64060184 236.539913 43.67370997 234.29946518 41.72709137 C231.09047274 38.9389504 227.94030074 36.09180952 224.79946518 33.22709137 C218.36451689 27.36590391 211.8346031 21.6438163 205.17446518 16.03959137 C204.20251205 15.22103668 203.23055893 14.402482 202.22915268 13.55912262 C199.30967943 11.14621048 199.30967943 11.14621048 195.93227768 9.11381012 C194.62903549 8.17988434 194.62903549 8.17988434 193.29946518 7.22709137 C193.29946518 6.23709137 193.29946518 5.24709137 193.29946518 4.22709137 C197.22131576 2.95568766 201.17824265 3.05275958 205.25551987 3.02176911 C206.06852806 3.01188084 206.88153625 3.00199257 207.71918106 2.99180466 C210.46987072 2.95985084 213.22057421 2.93513556 215.97134018 2.91068512 C217.97124107 2.88975957 219.9711393 2.86857791 221.971035 2.84716278 C228.66377788 2.77798861 235.35660422 2.72095827 242.04946518 2.66459137 C244.38157793 2.64421987 246.71369056 2.62383402 249.04580307 2.60343415 C292.40694787 2.23107528 335.76944779 2.06000374 379.13205361 1.99189436 C385.08091027 1.98186121 391.02971462 1.96420739 396.97854233 1.94336945 C404.31534089 1.91788509 411.65206326 1.90373154 418.98890758 1.90325272 C422.76728793 1.90276971 426.54550107 1.89771464 430.32384109 1.87949044 C449.93998899 1.78963567 469.11292976 2.23383301 488.04946518 7.97709137 C489.34485214 8.35897614 489.34485214 8.35897614 490.66640854 8.74857575 C498.86601633 11.24940693 506.57736136 14.53096939 514.29946518 18.22709137 C515.34231674 18.69759918 516.3851683 19.168107 517.45962143 19.65287262 C546.90132979 33.42336863 569.06407596 60.1095764 580.04946518 90.35209137 C590.0347642 122.28527537 585.24579916 150.57137335 571.29946518 180.22709137 C570.98138901 180.91255036 570.66331284 181.59800934 570.33559799 182.30423981 C561.91721011 200.15122213 549.08506513 215.29448858 535.29946518 229.22709137 C534.09386948 230.45323151 534.09386948 230.45323151 532.8639183 231.70414215 C516.70757269 248.11123135 516.70757269 248.11123135 509.25600815 254.52006012 C505.759411 257.57074733 502.41464149 260.78305209 499.04946518 263.97709137 C493.13565634 269.56678541 487.18815395 275.11170339 481.17837143 280.59818512 C472.66929035 288.36835007 464.2329794 296.21624322 455.8158226 304.08573395 C451.03655559 308.54978974 446.22053917 312.97127106 441.39321518 317.38334137 C437.83969015 320.64073932 434.32003983 323.93416691 430.79946518 327.22709137 C425.31408344 332.35705481 419.79924545 337.45219187 414.25649643 342.52006012 C409.46503218 346.90197016 404.70064107 351.31328593 399.9317894 355.71976715 C398.32751157 357.20119271 396.72192152 358.6811813 395.11587143 360.16068512 C389.3036666 365.51661138 383.51038866 370.89186601 377.73696518 376.28959137 C372.27200662 381.39820011 366.77747335 386.47209862 361.25649643 391.52006012 C358.11613359 394.39199796 354.98807704 397.27715671 351.86196518 400.16459137 C351.32168686 400.66361969 350.78140854 401.16264801 350.22475815 401.6767984 C349.12998212 402.68813809 348.03525568 403.69953145 346.94057846 404.71097809 C344.76856076 406.71755796 342.59570445 408.72322829 340.4227562 410.72880036 C339.3385341 411.72953295 338.25438724 412.73034706 337.17031479 413.73124176 C334.48798263 416.20770463 331.80481042 418.68324409 329.11977768 421.15677887 C323.30646477 426.5142155 317.51173197 431.89061011 311.73696518 437.28959137 C306.26931997 442.40071157 300.77174359 447.47674329 295.24868393 452.52787262 C287.37069058 459.73806256 279.53826341 466.99653397 271.73696518 474.28959137 C266.27198382 479.39817604 260.77747366 484.47209834 255.25649643 489.52006012 C250.46503218 493.90197016 245.70064107 498.31328593 240.9317894 502.71976715 C239.32751157 504.20119271 237.72192152 505.6811813 236.11587143 507.16068512 C224.94875083 517.45047478 213.85333728 527.8157843 202.79946518 538.22709137 C200.65810402 540.24214786 198.51662823 542.25708248 196.37514877 544.27201325 C195.020226 545.54820962 193.66633673 546.8255044 192.31362534 548.1040445 C182.67061195 557.21823961 172.93647693 566.27316761 162.46352768 574.43802887 C160.22151658 576.04598361 160.22151658 576.04598361 159.29946518 578.22709137 C121.89669215 578.31857995 84.49393592 578.38909601 47.0910737 578.43135269 C42.67868513 578.43635572 38.26629678 578.44153299 33.85390854 578.44681793 C32.97545473 578.44786718 32.09700092 578.44891642 31.19192729 578.44999745 C16.95462853 578.4674186 2.71739414 578.49896566 -11.51986638 578.53570256 C-26.12076708 578.57306448 -40.72163398 578.59531715 -55.32258052 578.60344535 C-64.33741467 578.60894301 -73.35206687 578.62632749 -82.36684503 578.65875724 C-88.54256683 578.67984657 -94.71819409 578.68630414 -100.89394931 578.68109688 C-104.46094025 578.67852634 -108.02761251 578.68255872 -111.59454727 578.70391327 C-115.45594924 578.7268628 -119.31693136 578.71907861 -123.17839432 578.70810944 C-124.88119473 578.72558649 -124.88119473 578.72558649 -126.61839515 578.74341661 C-127.64848659 578.73545241 -128.67857804 578.72748822 -129.73988438 578.71928269 C-131.07782896 578.72156101 -131.07782896 578.72156101 -132.44280273 578.72388536 C-134.70053482 578.22709137 -134.70053482 578.22709137 -136.50935477 576.37919074 C-137.70053482 574.22709137 -137.70053482 574.22709137 -137.72006607 571.30131012 C-136.40183314 567.32640854 -134.55750372 565.75686626 -131.38803482 563.03959137 C-130.29398794 562.08289952 -129.20024678 561.12585796 -128.10678482 560.16849762 C-127.54346451 559.68397125 -126.9801442 559.19944489 -126.39975357 558.7002359 C-123.68195257 556.34402739 -121.03571037 553.91146907 -118.38803482 551.47709137 C-117.88393082 551.01633209 -117.37982681 550.55557282 -116.86044693 550.08085114 C-113.59203039 547.08376668 -110.44184148 543.99728533 -107.33725357 540.83256012 C-105.54122059 539.07081894 -103.66970821 537.43073191 -101.76303482 535.78959137 C-98.95477135 533.37091358 -96.30082889 530.86809455 -93.70053482 528.22709137 C-91.14063348 525.62726954 -88.53273942 523.16440739 -85.76303482 520.78959137 C-82.77251766 518.22043867 -79.96936798 515.53391881 -77.20053482 512.72709137 C-73.81812083 509.29826347 -70.3198304 506.10660619 -66.66537857 502.97318512 C-64.59233158 501.13093462 -62.64617681 499.20307475 -60.70053482 497.22709137 C-58.14063348 494.62726954 -55.53273942 492.16440739 -52.76303482 489.78959137 C-49.77251766 487.22043867 -46.96936798 484.53391881 -44.20053482 481.72709137 C-41.47224075 478.9614873 -38.71536648 476.31422106 -35.76303482 473.78959137 C-32.59017562 471.07089889 -29.637151 468.19957462 -26.70053482 465.22709137 C-23.15821283 461.64150438 -19.52497821 458.27817475 -15.69662857 455.00443512 C-12.63523842 452.27853979 -9.80088318 449.33567779 -6.92319107 446.41849762 C-4.27352042 443.80608069 -1.48880679 441.39406516 1.33462143 438.97318512 C3.40766842 437.13093462 5.35382319 435.20307475 7.29946518 433.22709137 C9.85936652 430.62726954 12.46726058 428.16440739 15.23696518 425.78959137 C18.22748234 423.22043867 21.03063202 420.53391881 23.79946518 417.72709137 C27.18187917 414.29826347 30.6801696 411.10660619 34.33462143 407.97318512 C37.1150835 405.50227748 39.69064736 402.84542197 42.29946518 400.19584137 C44.86251746 397.67283678 47.57292342 395.3514632 50.29946518 393.00834137 C53.0079318 390.59611328 55.53099163 388.0230104 58.04946518 385.41459137 C60.00654157 383.51187821 62.00531825 381.71936133 64.06509018 379.93021637 C68.15578817 376.37687187 72.11251922 372.69914387 76.04946518 368.97709137 C81.78760855 363.57472233 87.55881927 358.21449223 93.37759018 352.89896637 C97.05153791 349.53936711 100.71023866 346.16350071 104.36562729 342.783732 C107.13623155 340.22230029 109.91065941 337.66531281 112.69399643 335.11771637 C118.33556733 329.94641245 123.86447497 324.71590738 129.23305893 319.25834137 C131.8966992 316.64001824 134.70449101 314.22290318 137.57290268 311.83256012 C139.42169065 310.11343828 140.84434431 308.28479297 142.29946518 306.22709137 C136.0559946 298.9209024 129.54831072 292.24917368 122.26821518 285.97709137 C120.36923447 284.28910852 118.57940529 282.53939403 116.79946518 280.72709137 C113.85682194 277.73815936 110.77590811 274.98056839 107.60024643 272.24271637 C104.79172989 269.78228423 102.04502838 267.25714859 99.29946518 264.72709137 C93.67742205 259.55640882 87.97723064 254.49909749 82.15493393 249.55521637 C75.57227563 243.95700164 69.10448576 238.27223524 62.77993393 232.38334137 C59.32577144 229.16739698 55.82510926 226.02191182 52.25649643 222.93412262 C49.91387368 220.89075707 47.60673096 218.81028278 45.29946518 216.72709137 C42.31883797 214.03725706 39.32701285 211.36398773 36.29946518 208.72709137 C32.40433707 205.33456044 28.57163755 201.87514937 24.73696518 198.41459137 C21.9644921 195.92647451 19.16101669 193.47641673 16.35024643 191.03177887 C14.03857721 188.99750996 11.76415088 186.92486827 9.48696518 184.85209137 C6.11005536 181.7985027 2.66729386 178.88279932 -0.88803482 176.03959137 C-6.953737 171.13705651 -12.58218459 165.804511 -18.25522232 160.45756012 C-21.37829405 157.51676558 -24.56325574 154.6630996 -27.81381607 151.86381012 C-30.13712269 149.84835365 -32.41801947 147.78860675 -34.70053482 145.72709137 C-37.68116203 143.03725706 -40.67298715 140.36398773 -43.70053482 137.72709137 C-46.72808249 135.09019501 -49.71990761 132.41692568 -52.70053482 129.72709137 C-58.02388175 124.92801345 -63.38916821 120.18631187 -68.85287857 115.54740387 C-75.43371661 109.95267398 -81.89819381 104.26974025 -88.22006607 98.38334137 C-91.67422856 95.16739698 -95.17489074 92.02191182 -98.74350357 88.93412262 C-101.08612632 86.89075707 -103.39326904 84.81028278 -105.70053482 82.72709137 C-108.68116203 80.03725706 -111.67298715 77.36398773 -114.70053482 74.72709137 C-117.72808249 72.09019501 -120.71990761 69.41692568 -123.70053482 66.72709137 C-129.02388175 61.92801345 -134.38916821 57.18631187 -139.85287857 52.54740387 C-146.43371661 46.95267398 -152.89819381 41.26974025 -159.22006607 35.38334137 C-162.67019854 32.17114907 -166.16580512 29.0282984 -169.73178482 25.94584137 C-172.96463164 23.12351479 -176.13134674 20.22782302 -179.30600357 17.34037262 C-181.70241945 15.16288988 -181.70241945 15.16288988 -184.47397232 13.18412262 C-186.70053482 11.22709137 -186.70053482 11.22709137 -187.13803482 7.60209137 C-186.70053482 4.22709137 -186.70053482 4.22709137 -184.70053482 2.22709137 C-182.87680435 1.91717011 -182.87680435 1.91717011 -180.58334732 1.83280426 C-179.69131607 1.79698746 -178.79928482 1.76117066 -177.88022232 1.7242685 C-176.87217545 1.69555161 -175.86412857 1.66683472 -174.82553482 1.63724762 C-173.73240982 1.60043381 -172.63928482 1.56362 -171.51303482 1.52569062 C-152.91561225 0.95699496 -134.30481059 0.83722569 -115.70053482 0.66459137 C-114.11424774 0.64952294 -114.11424774 0.64952294 -112.49591446 0.63415009 C-74.99826281 0.27908742 -37.49925298 0.07043231 0 0 Z " fill="#1E5585" transform="translate(327.70053482055664,-0.22709137201309204)"/>
<path d="M0 0 C5.29765955 4.17049795 9.41465427 8.73719327 13.59375 14.0234375 C15.47933285 16.35592798 17.40354901 18.59981731 19.39453125 20.83984375 C39.67337832 43.9084598 55.46921941 72.90218836 62 103 C62.16226074 103.74443359 62.32452148 104.48886719 62.49169922 105.25585938 C73.19882075 157.10086888 56.1887486 209.43302844 28.30078125 252.91796875 C27.78616648 253.65605837 27.2715517 254.39414799 26.74134254 255.15460396 C24.86948443 258.01043528 24.86948443 258.01043528 23.69196129 261.50068474 C21.9239689 265.81737178 19.90336846 269.31252825 16 272 C7.76719545 274.59190169 -1.31799698 273.84463821 -9.85625243 273.68355489 C-13.45137786 273.63111203 -17.04599437 273.65992929 -20.6413269 273.67849731 C-27.67459584 273.70216797 -34.70546216 273.65172711 -41.73829167 273.57647015 C-49.92724815 273.49188973 -58.11575787 273.48333863 -66.30508526 273.47843145 C-80.91208234 273.46731262 -95.51799309 273.39082803 -110.12451172 273.27587891 C-124.30231108 273.16439049 -138.47948887 273.0936487 -152.65771484 273.07080078 C-153.96888881 273.06867601 -153.96888881 273.06867601 -155.30655114 273.06650831 C-157.06745047 273.06368986 -158.82834981 273.06088106 -160.58924917 273.05808198 C-161.45785746 273.05670059 -162.32646574 273.0553192 -163.22139549 273.05389595 C-164.52099462 273.05186066 -164.52099462 273.05186066 -165.84684827 273.04978425 C-179.35715631 273.02733324 -192.86736238 272.97336527 -206.37755161 272.91383926 C-210.46004615 272.89596771 -214.54253587 272.87960176 -218.62504911 272.86661768 C-227.20657546 272.83916438 -235.78776626 272.80121008 -244.36903326 272.72719027 C-247.91777691 272.69674684 -251.46626302 272.67246719 -255.01513672 272.66523743 C-258.85653394 272.65707633 -262.69724391 272.61789946 -266.53842163 272.57522583 C-268.23201343 272.57837836 -268.23201343 272.57837836 -269.9598192 272.58159459 C-270.98436035 272.56499661 -272.00890151 272.54839863 -273.06448936 272.53129768 C-273.95157377 272.52522755 -274.83865817 272.51915741 -275.75262392 272.51290333 C-278 272 -278 272 -279.80724871 270.14965522 C-281 268 -281 268 -281.01953125 265.07421875 C-279.70129832 261.09931716 -277.8569689 259.52977489 -274.6875 256.8125 C-273.59345312 255.85580815 -272.49971196 254.89876658 -271.40625 253.94140625 C-270.56126953 253.2146167 -270.56126953 253.2146167 -269.69921875 252.47314453 C-266.98141775 250.11693602 -264.33517555 247.6843777 -261.6875 245.25 C-261.183396 244.78924072 -260.67929199 244.32848145 -260.15991211 243.85375977 C-256.89149557 240.85667531 -253.74130666 237.77019396 -250.63671875 234.60546875 C-248.84068577 232.84372757 -246.96917339 231.20364054 -245.0625 229.5625 C-242.25423653 227.14382221 -239.60029407 224.64100317 -237 222 C-234.44009866 219.40017817 -231.8322046 216.93731602 -229.0625 214.5625 C-226.07198284 211.99334729 -223.26883316 209.30682744 -220.5 206.5 C-217.11758601 203.0711721 -213.61929558 199.87951482 -209.96484375 196.74609375 C-207.89179676 194.90384325 -205.94564198 192.97598338 -204 191 C-201.44009866 188.40017817 -198.8322046 185.93731602 -196.0625 183.5625 C-193.07198284 180.99334729 -190.26883316 178.30682744 -187.5 175.5 C-184.77170593 172.73439592 -182.01483166 170.08712969 -179.0625 167.5625 C-175.8896408 164.84380752 -172.93661618 161.97248325 -170 159 C-166.45767801 155.41441301 -162.82444339 152.05108338 -158.99609375 148.77734375 C-155.9347036 146.05144841 -153.10034836 143.10858642 -150.22265625 140.19140625 C-147.5729856 137.57898932 -144.78827197 135.16697379 -141.96484375 132.74609375 C-139.89179676 130.90384325 -137.94564198 128.97598338 -136 127 C-133.44009866 124.40017817 -130.8322046 121.93731602 -128.0625 119.5625 C-125.07198284 116.99334729 -122.26883316 114.30682744 -119.5 111.5 C-116.11758601 108.0711721 -112.61929558 104.87951482 -108.96484375 101.74609375 C-106.18438168 99.27518611 -103.60881782 96.6183306 -101 93.96875 C-98.43694772 91.44574541 -95.72654176 89.12437183 -93 86.78125 C-90.29153337 84.36902191 -87.76847355 81.79591903 -85.25 79.1875 C-83.2929236 77.28478684 -81.29414693 75.49226996 -79.234375 73.703125 C-75.14367701 70.14978049 -71.18694596 66.4720525 -67.25 62.75 C-61.51185663 57.34763096 -55.74064591 51.98740086 -49.921875 46.671875 C-46.24792727 43.31227574 -42.58922652 39.93640934 -38.93383789 36.55664062 C-36.16323363 33.99520891 -33.38880576 31.43822144 -30.60546875 28.890625 C-24.96319418 23.71867607 -19.43666902 18.48445091 -14.0625 13.03125 C-11.3886214 10.39788472 -8.57729589 7.95119707 -5.73046875 5.5078125 C-3.72531622 3.76065928 -1.84156687 1.91829882 0 0 Z " fill="#68929D" transform="translate(471,306)"/>
<path d="M0 0 C6.6 0 13.2 0 20 0 C20 49.17 20 98.34 20 149 C14.39 149 8.78 149 3 149 C2.34 144.05 1.68 139.1 1 134 C0.05125 135.03125 -0.8975 136.0625 -1.875 137.125 C-13.57284971 148.77577587 -27.91210119 152.29227141 -43.84326172 152.31689453 C-59.25123472 152.1020476 -72.54656063 146.04622995 -83.7109375 135.484375 C-94.89816901 123.34260155 -99.59570634 108.05182061 -99.3125 91.78515625 C-97.89266061 74.58735169 -90.84842844 60.27540631 -77.65625 48.99609375 C-63.28503828 38.19435507 -47.36345024 36.65089312 -30 38 C-18.36293773 39.86717618 -9.18805244 45.81194756 -1 54 C-0.67 36.18 -0.34 18.36 0 0 Z M-68.75 66.1875 C-77.22073862 75.27902561 -80.36541306 85.69285003 -79.9375 97.875 C-78.7755889 109.91187681 -74.02668883 118.96038174 -65 127 C-54.47027203 134.74859371 -43.72038201 136.21959559 -31 135 C-20.4650249 132.76068162 -11.8110345 127.03815527 -5.50390625 118.375 C1.15366922 107.86121848 2.93037365 95.97899515 0.31640625 83.8203125 C-3.76976267 71.85004171 -10.87824252 63.81684024 -21.875 57.6875 C-37.78968941 50.24147062 -56.13181887 54.72392368 -68.75 66.1875 Z " fill="#F5F5F5" transform="translate(774,756)"/>
<path d="M0 0 C1.13759766 -0.01160156 2.27519531 -0.02320313 3.44726562 -0.03515625 C17.35724816 0.0124535 30.21208236 3.33887702 41.01953125 12.4453125 C51.25307185 23.03959015 51.12308737 35.33178507 50.953125 49.16796875 C50.94565053 50.96828071 50.93996331 52.76860089 50.93597412 54.56892395 C50.92081258 59.27246161 50.88161435 63.9754932 50.8371582 68.67883301 C50.79599916 73.49219928 50.77791934 78.30564853 50.7578125 83.11914062 C50.71510923 92.5380168 50.64483884 101.95638685 50.5625 111.375 C45.2825 111.375 40.0025 111.375 34.5625 111.375 C33.12804886 108.50609771 33.13176882 105.63695706 32.84375 102.46875 C32.670345 100.32056067 32.670345 100.32056067 31.5625 98.375 C31.04042969 98.82230469 30.51835938 99.26960937 29.98046875 99.73046875 C19.32646432 108.48130602 6.36441815 113.51725367 -7.4375 114.375 C-8.25605469 114.42785156 -9.07460938 114.48070312 -9.91796875 114.53515625 C-21.70497641 114.92635564 -33.23716287 112.40152472 -42.40234375 104.73046875 C-49.08843646 98.01610504 -51.56154652 88.93718057 -51.875 79.625 C-51.56504531 72.29296839 -49.72309102 65.66059102 -44.4375 60.375 C-29.31166071 47.71868549 -9.24246152 49.09953902 9.3125 49.25 C11.47395419 49.26004875 13.6354129 49.26917125 15.796875 49.27734375 C21.05218308 49.29920957 26.30732008 49.33253721 31.5625 49.375 C31.33322454 46.49698966 31.07989643 43.62451162 30.8125 40.75 C30.750625 39.94175781 30.68875 39.13351562 30.625 38.30078125 C29.99854461 31.87961347 28.05925844 27.94741779 23.5 23.25 C12.87157418 16.46589841 0.39777545 15.45160476 -11.79296875 18.10546875 C-18.39204023 20.3354998 -24.50080869 23.46996304 -28.4375 29.375 C-28.7675 31.025 -29.0975 32.675 -29.4375 34.375 C-36.0375 34.375 -42.6375 34.375 -49.4375 34.375 C-48.18231514 23.0783363 -45.57694127 17.38525034 -36.88671875 10.16015625 C-25.71924739 2.02054794 -13.56261382 -0.13784701 0 0 Z M-29.8125 72.5 C-32.2357691 76.78732225 -32.16019891 80.56453539 -31.4375 85.375 C-29.73944617 90.8830621 -26.27886313 93.57403972 -21.4375 96.4296875 C-11.91290502 100.93154685 1.13710875 98.93692756 10.66015625 95.5703125 C18.69845237 92.25978947 25.72319933 88.14913468 30.64282227 80.75024414 C31.94118253 77.39697973 31.77442518 74.16218619 31.6875 70.625 C31.67847656 69.92761719 31.66945313 69.23023438 31.66015625 68.51171875 C31.63669888 66.79933042 31.60083104 65.08711996 31.5625 63.375 C26.10395197 63.30001466 20.64571348 63.24600927 15.18676758 63.21020508 C13.33547737 63.19525587 11.48422171 63.17488903 9.63305664 63.14868164 C-11.64362387 62.68321636 -11.64362387 62.68321636 -29.8125 72.5 Z " fill="#F5F5F5" transform="translate(875.4375,793.625)"/>
<path d="M0 0 C1.11044678 0.00161133 2.22089355 0.00322266 3.36499023 0.00488281 C11.5443069 0.1272038 18.28424208 1.00308977 25.8125 4.375 C26.54855469 4.66375 27.28460938 4.9525 28.04296875 5.25 C36.76599734 9.02941664 42.96497827 15.44230573 46.9375 23.98046875 C50.11956555 32.68853206 49.50142648 41.93145716 45.8125 50.375 C41.13015843 57.28702803 35.8307049 61.93734306 27.8125 64.375 C27.23900818 64.5504686 26.66551636 64.72593719 26.074646 64.90672302 C23.20106254 65.501571 20.5106837 65.49439637 17.57519531 65.48852539 C16.31419006 65.48844986 15.05318481 65.48837433 13.75396729 65.48829651 C12.38285279 65.48319028 11.01173869 65.4779743 9.640625 65.47265625 C8.23386689 65.47079028 6.82710812 65.46936722 5.42034912 65.46836853 C1.72469273 65.46455744 -1.97092413 65.4547392 -5.66656494 65.44366455 C-9.44046494 65.43342014 -13.21437135 65.42886442 -16.98828125 65.42382812 C-24.38803882 65.41311564 -31.78776386 65.39605616 -39.1875 65.375 C-38.58229642 67.11129254 -37.97026911 68.84520733 -37.35546875 70.578125 C-37.01539795 71.54395508 -36.67532715 72.50978516 -36.32495117 73.50488281 C-32.67996953 82.7022222 -26.45318188 89.26578531 -17.59765625 93.66015625 C-5.92060372 98.55925047 4.86128131 98.38001454 16.8125 94.375 C22.61529938 91.75699284 27.72267929 88.16529202 32.8125 84.375 C34.30077426 85.78209566 35.77783185 87.20106201 37.25 88.625 C38.07371094 89.41390625 38.89742188 90.2028125 39.74609375 91.015625 C41.73135207 93.28234717 42.4425359 94.4421937 42.8125 97.375 C38.09669305 102.33900731 32.87805061 105.64347135 26.8125 108.6875 C26.14863281 109.02458984 25.48476562 109.36167969 24.80078125 109.70898438 C11.68917824 116.08446914 -5.37214357 116.77204557 -19.375 112.8125 C-35.49106262 106.72656583 -47.02407085 96.4365717 -54.3671875 80.875 C-60.83398811 65.77006427 -60.48393738 50.78540058 -55.1875 35.375 C-48.99646113 20.37725538 -37.42760363 10.80613934 -23.3125 3.671875 C-15.50961004 0.43367566 -8.36876793 -0.01255912 0 0 Z M-30.9375 30.0625 C-35.49755229 35.57920661 -39.1875 42.14130605 -39.1875 49.375 C-31.89390378 49.46803702 -24.60043733 49.53893443 -17.30636597 49.58224869 C-13.91871042 49.60304671 -10.53146344 49.63121887 -7.14404297 49.67675781 C-3.24175354 49.72544693 0.65996152 49.74800929 4.5625 49.765625 C5.76801514 49.78627014 6.97353027 49.80691528 8.21557617 49.82818604 C15.24438813 49.83004787 19.8598089 49.20896625 25.8125 45.375 C28.94566518 42.00684743 30.06989808 39.38587941 30.3125 34.875 C30.04200828 29.67457854 28.16145852 26.56196138 24.33984375 23.00390625 C7.70621782 9.7520577 -17.23474208 15.62144693 -30.9375 30.0625 Z " fill="#F5F5F5" transform="translate(187.1875,793.625)"/>
<path d="M0 0 C1.24910156 0.57814453 1.24910156 0.57814453 2.5234375 1.16796875 C12.01080098 6.03772841 17.7645863 12.03219014 21.78515625 21.93359375 C24.19657994 29.61501622 23.20901283 38.05106781 19.9375 45.3125 C15.83851768 52.65995534 9.89650153 57.31816929 2 60 C-1.80951855 60.92648226 -5.34281708 61.12150139 -9.2590332 61.11352539 C-10.49994217 61.11344986 -11.74085114 61.11337433 -13.0193634 61.11329651 C-14.36316977 61.10819072 -15.70697571 61.10297474 -17.05078125 61.09765625 C-18.43368987 61.09578965 -19.81659915 61.09436689 -21.19950867 61.09336853 C-24.82774706 61.08956237 -28.455945 61.07974843 -32.08416748 61.06866455 C-35.79113213 61.05840945 -39.49810336 61.05386215 -43.20507812 61.04882812 C-50.47007046 61.03812435 -57.73502955 61.0210709 -65 61 C-64.39799527 62.73519011 -63.78842218 64.46775535 -63.17578125 66.19921875 C-62.83716064 67.16432373 -62.49854004 68.12942871 -62.1496582 69.1237793 C-58.15930144 79.106874 -51.69969197 85.57698778 -41.9375 89.8125 C-30.87499974 94.30436936 -20.18921284 93.92424805 -9 90 C-5.48814343 88.23666274 -2.2475592 86.20639819 1 84 C2.98 82.68 4.96 81.36 7 80 C10.3 83.63 13.6 87.26 17 91 C12.20042523 100.59914954 0.08991418 105.39126978 -9.67578125 108.6484375 C-15.24472249 110.25394032 -20.54257917 110.49886672 -26.3125 110.4375 C-27.82807495 110.42505249 -27.82807495 110.42505249 -29.37426758 110.41235352 C-44.74559339 110.06544623 -57.80122336 104.56255051 -68.875 93.6875 C-80.84081587 81.05022108 -85.49508286 66.34892115 -85.2109375 49.13671875 C-84.6045171 32.79705806 -76.55103093 19.91809773 -65 9 C-48.16907828 -5.49476855 -20.26294884 -9.396866 0 0 Z M-56.8125 25.875 C-61.67706896 31.78680255 -63.93701681 37.67999401 -66 45 C-58.68908243 45.06972114 -51.37823735 45.12292288 -44.06705379 45.15543652 C-40.67161698 45.1710469 -37.27640879 45.19219932 -33.88110352 45.22631836 C-29.97154541 45.26535614 -26.06207768 45.27974753 -22.15234375 45.29296875 C-20.94166733 45.30845261 -19.73099091 45.32393646 -18.48362732 45.33988953 C-10.51400922 45.34147271 -5.2510543 44.89767884 0.875 39.4375 C3.90384463 35.96323705 4.35755113 33.7993225 4.2734375 29.15625 C3.62365008 24.03221209 0.85296411 20.40039711 -3.125 17.25 C-20.37972344 6.24330273 -43.40171653 11.35376949 -56.8125 25.875 Z " fill="#F5F5F5" transform="translate(543,798)"/>
<path d="M0 0 C6.93 0 13.86 0 21 0 C32.91780539 26.8964679 44.5985628 53.88001905 56 81 C58.80924993 74.40848364 61.6181152 67.8168035 64.42654896 61.22493935 C65.73202832 58.16079075 67.03765536 55.0967053 68.34350586 52.03271484 C69.86083245 48.47246619 71.37772141 44.91203134 72.89453125 41.3515625 C73.3965506 40.17378235 73.89856995 38.9960022 74.415802 37.78253174 C77.01708529 31.67514379 79.60796622 25.5636013 82.18115234 19.44433594 C82.68853439 18.23925385 83.19591644 17.03417175 83.71867371 15.79257202 C84.68817507 13.48814654 85.65563089 11.18285915 86.62080383 8.87661743 C87.05104355 7.85434052 87.48128326 6.8320636 87.92456055 5.77880859 C88.30259323 4.87697845 88.68062592 3.97514832 89.07011414 3.04598999 C90 1 90 1 91 0 C92.56172745 -0.08685603 94.12729344 -0.10702219 95.69140625 -0.09765625 C96.63564453 -0.09443359 97.57988281 -0.09121094 98.55273438 -0.08789062 C99.54595703 -0.07951172 100.53917969 -0.07113281 101.5625 -0.0625 C102.55958984 -0.05798828 103.55667969 -0.05347656 104.58398438 -0.04882812 C107.05604849 -0.03700007 109.52799518 -0.02051849 112 0 C103.95421633 18.57807836 95.82301 37.11855042 87.67137146 55.65037537 C85.6132686 60.32939591 83.55679917 65.00912068 81.50390625 69.69042969 C76.36949339 81.39693603 71.21143635 93.09242749 65.99798584 104.76397705 C65.07775509 106.82578694 64.16092369 108.88907565 63.24462891 110.95263672 C51.0048626 138.3540183 51.0048626 138.3540183 38.23828125 143.37890625 C33.55429781 144.67865035 29.01266485 145.123724 24.1640625 145.09765625 C23.10058594 145.09443359 22.03710938 145.09121094 20.94140625 145.08789062 C19.84699219 145.07951172 18.75257813 145.07113281 17.625 145.0625 C16.50738281 145.05798828 15.38976562 145.05347656 14.23828125 145.04882812 C11.49213196 145.03709244 8.74609414 145.02067363 6 145 C4.49843126 141.99686252 4.90718796 139.20932478 4.9375 135.875 C4.94652344 134.59367188 4.95554687 133.31234375 4.96484375 131.9921875 C4.97644531 131.00476563 4.98804688 130.01734375 5 129 C5.95253662 128.97812622 5.95253662 128.97812622 6.92431641 128.95581055 C9.82513081 128.88094911 12.72484206 128.78441574 15.625 128.6875 C16.62402344 128.66494141 17.62304688 128.64238281 18.65234375 128.61914062 C24.99377906 128.38816119 29.89772024 127.91937891 34.72265625 123.37890625 C38.79750988 117.85468777 42.42143694 111.72683123 44 105 C42.68367533 100.26764186 40.69301959 95.81222832 38.71875 91.32421875 C38.39300995 90.57812347 38.0672699 89.8320282 37.73165894 89.06332397 C36.65696208 86.60360401 35.57852076 84.1455454 34.5 81.6875 C33.74410196 79.95964214 32.9884089 78.23169459 32.23291016 76.50366211 C29.82581352 71.00074074 27.41319611 65.50024868 25 60 C24.18324902 58.13770374 23.3665172 56.27539907 22.54980469 54.41308594 C19.06166412 46.46025641 15.57202348 38.50808868 12.0770874 30.5582428 C11.38353567 28.97973263 10.6906864 27.4009136 9.99859619 25.82176208 C8.32112698 21.99547057 6.63292591 18.17463637 4.92285156 14.36279297 C4.59475494 13.62653183 4.26665833 12.89027069 3.92861938 12.13169861 C3.31102921 10.74635221 2.68918789 9.36289017 2.06234741 7.98170471 C0.79619056 5.13061679 0 3.15867967 0 0 Z " fill="#F4F4F4" transform="translate(944,797)"/>
<path d="M0 0 C-0.45294865 1.75140143 -0.91258748 3.50107344 -1.375 5.25 C-1.63023437 6.22453125 -1.88546875 7.1990625 -2.1484375 8.203125 C-2.89598509 10.65837303 -3.77123817 12.75617405 -5 15 C-10.13407519 14.15382835 -14.65705844 12.21327491 -19.453125 10.25390625 C-31.97462532 5.8272525 -47.53697499 4.37424802 -59.95703125 9.78515625 C-63.47600634 11.87770166 -65.21182226 14.42364452 -67 18 C-67.64057963 22.65792902 -67.73355972 25.9455079 -65 29.875 C-57.42241742 35.24245432 -48.59661115 36.08965545 -39.625 37.5 C-8.80660933 42.3743373 -8.80660933 42.3743373 1.25 56.0625 C5.24396884 62.76666198 5.0865088 71.32015788 3.3515625 78.79296875 C0.0425409 87.91398982 -6.23609899 94.847898 -15 99 C-34.4021118 106.56656797 -59.40511177 107.34579671 -78.86425781 99.22167969 C-82.34473466 97.6568573 -85.69735493 95.9090434 -89 94 C-88.43267729 89.92722012 -87.52536141 86.41537885 -85.9375 82.625 C-85.57527344 81.75101563 -85.21304687 80.87703125 -84.83984375 79.9765625 C-84.42412109 78.99816406 -84.42412109 78.99816406 -84 78 C-80.70167263 78.55722596 -78.63503329 79.19600064 -75.625 80.8125 C-62.47652979 87.50938875 -45.25694649 89.74922137 -30.890625 85.76171875 C-25.63099006 83.64265096 -20.98905556 80.92790241 -18 76 C-17.17215966 71.41331703 -17.34799336 67.30401327 -19.4375 63.125 C-25.55595882 58.0511561 -33.01281729 56.29543242 -40.6875 54.9375 C-42.45189572 54.60194508 -44.21621839 54.26600584 -45.98046875 53.9296875 C-47.65347231 53.61885624 -49.32663827 53.30889726 -51 53 C-76.97931298 48.20138947 -76.97931298 48.20138947 -83.546875 38.78125 C-83.94390625 38.0284375 -84.3409375 37.275625 -84.75 36.5 C-85.15734375 35.7471875 -85.5646875 34.994375 -85.984375 34.21875 C-89.45966274 26.62658293 -88.64308059 18.13793146 -86.0390625 10.38671875 C-82.64732876 2.59593186 -77.04955292 -2.84939904 -69.28515625 -6.15625 C-46.46570203 -14.73268917 -21.23879438 -10.91033958 0 0 Z " fill="#F5F5F5" transform="translate(342,804)"/>
<path d="M0 0 C19.13481144 -2.66531787 19.13481144 -2.66531787 24.97558594 1.36230469 C28.44615883 5.21921223 30.58843456 9.84908096 32.77539062 14.51513672 C34.82751761 18.67912166 37.40472465 22.49184187 39.9375 26.375 C40.94565182 27.96819329 41.9508464 29.56326159 42.953125 31.16015625 C50.91538889 43.80806385 58.89012168 56.4460722 67 69 C69.22584275 66.90718218 70.88271245 64.8092763 72.49609375 62.21875 C72.96595703 61.46916016 73.43582031 60.71957031 73.91992188 59.94726562 C74.42072266 59.13966797 74.92152344 58.33207031 75.4375 57.5 C76.51942617 55.77076758 77.60146039 54.04160277 78.68359375 52.3125 C79.51093018 50.98605469 79.51093018 50.98605469 80.35498047 49.6328125 C82.88796941 45.57882723 85.44428992 41.53968438 88 37.5 C91.07439201 32.63537249 94.14613746 27.76911488 97.2109375 22.8984375 C97.74074219 22.05732422 98.27054687 21.21621094 98.81640625 20.34960938 C99.81736445 18.76036873 100.8174407 17.17057206 101.81640625 15.58007812 C102.73825611 14.11725475 103.67252029 12.66217379 104.61962891 11.21557617 C106.05510414 8.98836605 106.05510414 8.98836605 107.26708984 6.46606445 C108.65691963 3.8924273 109.84339717 1.9827103 112 0 C116.01569845 -1.08129299 119.7540874 -0.85938841 123.875 -0.5625 C124.94492188 -0.52189453 126.01484375 -0.48128906 127.1171875 -0.43945312 C129.74947927 -0.3336914 132.37237237 -0.18614218 135 0 C133.76663656 3.30525595 132.39301764 6.14770429 130.41015625 9.0625 C129.88333252 9.84367188 129.35650879 10.62484375 128.8137207 11.4296875 C128.23581787 12.27789063 127.65791504 13.12609375 127.0625 14 C125.78531287 15.89506185 124.50933712 17.7909405 123.234375 19.6875 C122.20666992 21.21503906 122.20666992 21.21503906 121.15820312 22.7734375 C117.33532667 28.4887243 113.57505775 34.24489847 109.8125 40 C109.01443102 41.22006956 108.21633516 42.44012154 107.41821289 43.66015625 C106.19968805 45.52293512 104.98124215 47.38576532 103.76307678 49.2487793 C100.73616808 53.87733898 97.70313832 58.50185411 94.66796875 63.125 C93.36586076 65.10917604 92.06382621 67.09340025 90.7618103 69.07763672 C89.92816017 70.34769958 89.09420183 71.6175602 88.25991821 72.88720703 C87.09946811 74.65338642 85.94023447 76.42035862 84.78125 78.1875 C84.12189453 79.19167969 83.46253906 80.19585938 82.78320312 81.23046875 C82.19474609 82.14441406 81.60628906 83.05835938 81 84 C80.47713913 84.7662822 79.95427826 85.53256439 79.41557312 86.32206726 C77.81627144 89.3475714 77.60671462 91.21582766 77.56762695 94.61645508 C77.54783279 95.71721878 77.52803864 96.81798248 77.50764465 97.95210266 C77.50125473 99.1293541 77.49486481 100.30660553 77.48828125 101.51953125 C77.46135445 103.34009285 77.46135445 103.34009285 77.43388367 105.19743347 C77.37975699 109.06908711 77.34587623 112.94061728 77.3125 116.8125 C77.27932914 119.43947031 77.24483971 122.06642433 77.20898438 124.69335938 C77.12402861 131.12881721 77.05722785 137.56423827 77 144 C70.73 144 64.46 144 58 144 C58.02731201 142.4229126 58.05462402 140.8458252 58.08276367 139.22094727 C58.17050595 133.29205192 58.18415724 127.36477935 58.17700195 121.43530273 C58.1839185 118.88374019 58.21013871 116.33214595 58.25708008 113.78100586 C58.53689604 97.74346394 57.85521339 86.3839539 47.44277954 73.79244995 C45.20691022 71.01469788 43.34133423 68.02568826 41.4375 65.015625 C40.70764632 63.89759328 39.97562731 62.78097212 39.24145508 61.66577148 C38.69371933 60.83104813 38.69371933 60.83104813 38.13491821 59.97946167 C37.7603952 59.40873932 37.38587219 58.83801697 37 58.25 C36.19225264 57.01834254 35.38455538 55.78665223 34.5769043 54.55493164 C33.3234709 52.64337774 32.06999972 50.73184873 30.81632996 48.82044983 C27.81905837 44.25042743 24.82487901 39.67838921 21.83203125 35.10546875 C20.56586243 33.17124773 19.29965819 31.2370499 18.03344727 29.30285645 C17.23478502 28.0826647 16.43627616 26.86237254 15.63793945 25.64196777 C14.51560695 23.92636815 13.39259394 22.21121544 12.26953125 20.49609375 C11.56521973 19.41956543 10.8609082 18.34303711 10.13525391 17.23388672 C8.66103476 15.00115097 7.17726293 12.77931294 5.67333984 10.56689453 C4.5723999 8.94243408 4.5723999 8.94243408 3.44921875 7.28515625 C2.78623779 6.31586182 2.12325684 5.34656738 1.44018555 4.34790039 C-0 2 -0 2 0 0 Z " fill="#F4F4F4" transform="translate(0,761)"/>
<path d="M0 0 C4.62 0 9.24 0 14 0 C14 10.56 14 21.12 14 32 C26.54 32 39.08 32 52 32 C52 37.28 52 42.56 52 48 C39.46 48 26.92 48 14 48 C14.09722435 55.65002149 14.20013896 63.29953774 14.31738281 70.94921875 C14.35553082 73.54845603 14.39040774 76.14774356 14.421875 78.74707031 C14.46783429 82.49562467 14.52577744 86.24383734 14.5859375 89.9921875 C14.59748871 91.14363251 14.60903992 92.29507751 14.62094116 93.48141479 C14.79190462 102.94939349 15.2136227 112.18057122 21 120 C28.09504557 125.66222615 36.74776826 125.22297669 45.375 125.5625 C46.39722656 125.60568359 47.41945313 125.64886719 48.47265625 125.69335938 C50.98163405 125.79887713 53.4908007 125.89988763 56 126 C56 131.28 56 136.56 56 142 C52.08923936 142.06965075 48.18009973 142.12913613 44.26904297 142.16479492 C42.30030432 142.1869343 40.33176638 142.22509352 38.36328125 142.26367188 C26.37843929 142.35492702 15.31093542 141.14475464 6 133 C-4.72033085 122.06382357 -5.15688939 107.80646762 -5.09765625 93.41015625 C-5.0962413 92.11049423 -5.09482635 90.81083221 -5.09336853 89.4717865 C-5.08957334 86.03756747 -5.07976908 82.60339158 -5.06866455 79.16918945 C-5.05838555 75.65641869 -5.05385708 72.14364088 -5.04882812 68.63085938 C-5.03814376 61.75388688 -5.02057167 54.87694996 -5 48 C-11.27 48 -17.54 48 -24 48 C-24 43.05 -24 38.1 -24 33 C-21.6075 32.505 -19.215 32.01 -16.75 31.5 C-16.00331055 31.34337891 -15.25662109 31.18675781 -14.48730469 31.02539062 C-11.22041203 30.36111659 -8.35146046 30 -5 30 C-4.87882812 28.98421875 -4.75765625 27.9684375 -4.6328125 26.921875 C-1.81405748 3.62811495 -1.81405748 3.62811495 0 0 Z " fill="#F4F4F4" transform="translate(381,765)"/>
<path d="M0 0 C5.61 0 11.22 0 17 0 C17.66 4.62 18.32 9.24 19 14 C20.11375 12.948125 21.2275 11.89625 22.375 10.8125 C32.72543525 1.77872789 43.64345985 -0.34231542 57 -0.125 C58.06089844 -0.11597656 59.12179687 -0.10695313 60.21484375 -0.09765625 C62.80999468 -0.07427651 65.40502805 -0.03841241 68 0 C68 5.61 68 11.22 68 17 C66.67226563 17.03738281 65.34453125 17.07476563 63.9765625 17.11328125 C49.93158501 17.59552934 38.4521869 18.08783014 28.27734375 28.81640625 C20.75352761 37.96699345 20.54061118 48.35746063 20.48828125 59.7578125 C20.47139935 61.15601135 20.4532445 62.55419534 20.43388367 63.95236206 C20.38675765 67.59854487 20.35670833 71.24466747 20.33044434 74.89105225 C20.30044789 78.62540578 20.25398417 82.35955246 20.20898438 86.09375 C20.12337778 93.39574738 20.05737101 100.69771618 20 108 C13.4 108 6.8 108 0 108 C0 72.36 0 36.72 0 0 Z " fill="#F5F5F5" transform="translate(591,797)"/>
</svg>
