<svg width="20" height="20" viewBox="0 0 20 20" fill="none" xmlns="http://www.w3.org/2000/svg">
    <path
        d="M6.66602 4.79199C6.32435 4.79199 6.04102 4.50866 6.04102 4.16699V1.66699C6.04102 1.32533 6.32435 1.04199 6.66602 1.04199C7.00768 1.04199 7.29102 1.32533 7.29102 1.66699V4.16699C7.29102 4.50866 7.00768 4.79199 6.66602 4.79199Z"
        fill="#707683" />
    <path
        d="M13.334 4.79199C12.9923 4.79199 12.709 4.50866 12.709 4.16699V1.66699C12.709 1.32533 12.9923 1.04199 13.334 1.04199C13.6757 1.04199 13.959 1.32533 13.959 1.66699V4.16699C13.959 4.50866 13.6757 4.79199 13.334 4.79199Z"
        fill="#707683" />
    <path
        d="M17.0827 8.2002H2.91602C2.57435 8.2002 2.29102 7.91686 2.29102 7.5752C2.29102 7.23353 2.57435 6.9502 2.91602 6.9502H17.0827C17.4243 6.9502 17.7077 7.23353 17.7077 7.5752C17.7077 7.91686 17.4243 8.2002 17.0827 8.2002Z"
        fill="#707683" />
    <path
        d="M13.3333 18.9587H6.66667C3.625 18.9587 1.875 17.2087 1.875 14.167V7.08366C1.875 4.04199 3.625 2.29199 6.66667 2.29199H13.3333C16.375 2.29199 18.125 4.04199 18.125 7.08366V14.167C18.125 17.2087 16.375 18.9587 13.3333 18.9587ZM6.66667 3.54199C4.28333 3.54199 3.125 4.70033 3.125 7.08366V14.167C3.125 16.5503 4.28333 17.7087 6.66667 17.7087H13.3333C15.7167 17.7087 16.875 16.5503 16.875 14.167V7.08366C16.875 4.70033 15.7167 3.54199 13.3333 3.54199H6.66667Z"
        fill="#707683" />
    <path
        d="M7.08333 12.0837C6.975 12.0837 6.86666 12.0587 6.76666 12.017C6.66666 11.9753 6.57501 11.917 6.49167 11.842C6.41667 11.7587 6.35832 11.667 6.31666 11.567C6.27499 11.467 6.25 11.3587 6.25 11.2503C6.25 11.0337 6.34167 10.817 6.49167 10.6587C6.57501 10.5837 6.66666 10.5253 6.76666 10.4837C6.91666 10.417 7.08334 10.4003 7.25001 10.4337C7.30001 10.442 7.35 10.4587 7.4 10.4837C7.45 10.5003 7.5 10.5253 7.55 10.5587C7.59166 10.592 7.63333 10.6253 7.67499 10.6587C7.70833 10.7003 7.74999 10.742 7.77499 10.7837C7.80832 10.8337 7.83334 10.8837 7.85001 10.9337C7.87501 10.9837 7.89168 11.0337 7.90001 11.0837C7.90834 11.142 7.91667 11.192 7.91667 11.2503C7.91667 11.467 7.82499 11.6837 7.67499 11.842C7.51666 11.992 7.3 12.0837 7.08333 12.0837Z"
        fill="#707683" />
    <path
        d="M9.99935 12.0837C9.78268 12.0837 9.56602 11.992 9.40769 11.842C9.37436 11.8004 9.34103 11.7587 9.30769 11.717C9.27436 11.667 9.24934 11.6171 9.23267 11.5671C9.20767 11.5171 9.19101 11.4671 9.18267 11.4171C9.17434 11.3587 9.16602 11.3087 9.16602 11.2504C9.16602 11.142 9.191 11.0337 9.23267 10.9337C9.27434 10.8337 9.33269 10.7421 9.40769 10.6587C9.64102 10.4254 10.016 10.3504 10.316 10.4837C10.4244 10.5254 10.5077 10.5837 10.591 10.6587C10.741 10.8171 10.8327 11.0337 10.8327 11.2504C10.8327 11.3087 10.8244 11.3587 10.816 11.4171C10.8077 11.4671 10.791 11.5171 10.766 11.5671C10.7494 11.6171 10.7243 11.667 10.691 11.717C10.6577 11.7587 10.6243 11.8004 10.591 11.842C10.5077 11.917 10.4244 11.9754 10.316 12.0171C10.216 12.0587 10.1077 12.0837 9.99935 12.0837Z"
        fill="#707683" />
    <path
        d="M7.08333 14.9997C6.975 14.9997 6.86666 14.9747 6.76666 14.9331C6.66666 14.8914 6.57501 14.8331 6.49167 14.7581C6.41667 14.6747 6.35832 14.5914 6.31666 14.4831C6.27499 14.3831 6.25 14.2747 6.25 14.1664C6.25 13.9497 6.34167 13.7331 6.49167 13.5747C6.57501 13.4997 6.66666 13.4414 6.76666 13.3997C7.075 13.2664 7.44166 13.3414 7.67499 13.5747C7.70833 13.6164 7.74999 13.6581 7.77499 13.6997C7.80832 13.7497 7.83334 13.7997 7.85001 13.8497C7.87501 13.8997 7.89168 13.9497 7.90001 14.0081C7.90834 14.0581 7.91667 14.1164 7.91667 14.1664C7.91667 14.3831 7.82499 14.5997 7.67499 14.7581C7.51666 14.9081 7.3 14.9997 7.08333 14.9997Z"
        fill="#707683" />
</svg>
    