<svg width="17" height="17" viewBox="0 0 17 17" fill="none" xmlns="http://www.w3.org/2000/svg">
    <path
        d="M11.0365 8.50068C11.0365 9.90318 9.90318 11.0365 8.50068 11.0365C7.09818 11.0365 5.96484 9.90318 5.96484 8.50068C5.96484 7.09818 7.09818 5.96484 8.50068 5.96484C9.90318 5.96484 11.0365 7.09818 11.0365 8.50068Z"
        stroke="#56687A" stroke-linecap="round" stroke-linejoin="round" />
    <path
        d="M8.4994 14.3577C10.9998 14.3577 13.3302 12.8843 14.9523 10.3343C15.5898 9.3356 15.5898 7.65685 14.9523 6.6581C13.3302 4.1081 10.9998 2.63477 8.4994 2.63477C5.99898 2.63477 3.66857 4.1081 2.04648 6.6581C1.40898 7.65685 1.40898 9.3356 2.04648 10.3343C3.66857 12.8843 5.99898 14.3577 8.4994 14.3577Z"
        stroke="#56687A" stroke-linecap="round" stroke-linejoin="round" />
</svg>
    