<svg width="20" height="20" viewBox="0 0 20 20" fill="none" xmlns="http://www.w3.org/2000/svg">
    <path
        d="M9.99991 11.0834C9.89157 11.0834 9.78324 11.0584 9.68324 11L2.32491 6.74171C2.03324 6.56671 1.92491 6.18338 2.09991 5.88338C2.27491 5.58338 2.65824 5.48338 2.95824 5.65838L9.99991 9.73338L16.9999 5.68338C17.2999 5.50838 17.6832 5.61671 17.8582 5.90838C18.0332 6.20838 17.9249 6.59171 17.6332 6.76671L10.3249 11C10.2166 11.05 10.1082 11.0834 9.99991 11.0834Z"
        fill="#707683" />
    <path
        d="M10 18.6335C9.65833 18.6335 9.375 18.3502 9.375 18.0085V10.4502C9.375 10.1085 9.65833 9.8252 10 9.8252C10.3417 9.8252 10.625 10.1085 10.625 10.4502V18.0085C10.625 18.3502 10.3417 18.6335 10 18.6335Z"
        fill="#707683" />
    <path
        d="M10.0005 18.9587C9.26719 18.9587 8.54219 18.8003 7.96719 18.4837L3.51719 16.0087C2.30885 15.342 1.36719 13.7337 1.36719 12.3503V7.64199C1.36719 6.25866 2.30885 4.65866 3.51719 3.98366L7.96719 1.51699C9.10885 0.883659 10.8922 0.883659 12.0339 1.51699L16.4839 3.99199C17.6922 4.65866 18.6339 6.26699 18.6339 7.65033V12.3587C18.6339 13.742 17.6922 15.342 16.4839 16.017L12.0339 18.4837C11.4589 18.8003 10.7339 18.9587 10.0005 18.9587ZM10.0005 2.29199C9.47552 2.29199 8.95885 2.40033 8.57552 2.60866L4.12552 5.08366C3.32552 5.52533 2.61719 6.72533 2.61719 7.64199V12.3503C2.61719 13.267 3.32552 14.467 4.12552 14.917L8.57552 17.392C9.33385 17.817 10.6672 17.817 11.4255 17.392L15.8755 14.917C16.6755 14.467 17.3839 13.2753 17.3839 12.3503V7.64199C17.3839 6.72533 16.6755 5.52533 15.8755 5.07533L11.4255 2.60033C11.0422 2.40033 10.5255 2.29199 10.0005 2.29199Z"
        fill="#707683" />
</svg>
    