<svg width="24" height="24" viewBox="0 0 24 24" fill="none" xmlns="http://www.w3.org/2000/svg">
    <path
        d="M17.9004 1.75977C19.3571 1.7598 20.5699 2.88131 20.7158 4.30176L20.7305 4.58984C20.7206 6.10848 19.5587 7.3264 18.0654 7.41309C18.064 7.41292 18.0627 7.41321 18.0615 7.41309C18.0388 7.41057 18.0203 7.41029 18.0137 7.41016H17.8857C16.2579 7.35827 15.0704 6.11186 15.0703 4.58984C15.0703 3.02696 16.3456 1.75977 17.9004 1.75977ZM17.9004 2.25C16.6142 2.25 15.5703 3.29394 15.5703 4.58008C15.5705 5.83898 16.5533 6.85838 17.8105 6.90918L18.0293 6.91797L18.0381 6.9082C19.2788 6.84316 20.2276 5.82039 20.2402 4.58496V4.58008C20.2402 3.29219 19.1947 2.25004 17.9004 2.25Z"
        fill="#404959" stroke="#404959" />
    <path
        d="M16.8984 9.35156C18.3252 9.09781 19.7814 9.34233 20.8457 9.96582L21.0527 10.0957C21.8265 10.6148 22.2207 11.3126 22.2207 12.0098C22.2207 12.6995 21.8342 13.4065 21.0537 13.9336C20.2361 14.4721 19.1552 14.7793 18.0107 14.7793C17.6465 14.7793 17.286 14.7516 16.9287 14.6875L16.9248 14.6865L16.877 14.6738C16.7711 14.6325 16.7021 14.5195 16.7236 14.3936C16.7462 14.2621 16.8727 14.1678 17.0166 14.1924C18.3469 14.4194 19.7823 14.1796 20.7783 13.5156L20.7773 13.5146C21.3276 13.151 21.7207 12.627 21.7207 12.0098C21.7207 11.3838 21.3081 10.8704 20.7803 10.5146L20.7783 10.5137L20.5859 10.3936C19.5993 9.82028 18.2404 9.62468 16.9834 9.84766L16.9746 9.84863C16.85 9.87292 16.7178 9.78863 16.6934 9.64551C16.6718 9.5193 16.7415 9.4063 16.8477 9.36523L16.8945 9.35254L16.8984 9.35156Z"
        fill="#404959" stroke="#404959" />
    <path
        d="M5.97047 7.91C5.96047 7.91 5.95047 7.91 5.95047 7.91C4.15047 7.85 2.74047 6.39 2.73047 4.59C2.73047 2.75 4.23047 1.25 6.06047 1.25C7.89047 1.25 9.39047 2.75 9.39047 4.58C9.39047 6.39 7.98047 7.85 6.18047 7.91L5.97047 7.16L6.04047 7.91C6.02047 7.91 5.99047 7.91 5.97047 7.91ZM6.07047 6.41C6.13047 6.41 6.18047 6.41 6.24047 6.42C7.13047 6.38 7.91047 5.58 7.91047 4.59C7.91047 3.58 7.09047 2.75999 6.08047 2.75999C5.07047 2.75999 4.25047 3.58 4.25047 4.59C4.25047 5.57 5.01047 6.36 5.98047 6.42C5.99047 6.41 6.03047 6.41 6.07047 6.41Z"
        fill="#404959" />
    <path
        d="M2.91699 10.0957C3.99465 9.37726 5.55029 9.08084 7.07227 9.35156L7.07617 9.35254C7.20765 9.37516 7.30188 9.50166 7.27734 9.64551C7.25292 9.78855 7.12069 9.87278 6.99609 9.84863L6.9873 9.84766L6.73438 9.80859C5.46628 9.64129 4.13776 9.8908 3.19531 10.5117L3.19434 10.5127C2.64773 10.8734 2.25 11.3879 2.25 12.0098C2.25005 12.6318 2.65799 13.1558 3.19043 13.5146L3.19238 13.5156C4.18843 14.1797 5.62379 14.4195 6.9541 14.1924C7.09186 14.1689 7.22421 14.2662 7.24707 14.3955C7.27065 14.5388 7.177 14.6641 7.0459 14.6865L7.04199 14.6875C6.68475 14.7516 6.32424 14.7793 5.95996 14.7793C4.88599 14.7793 3.86829 14.5086 3.07129 14.0303L2.91504 13.9326C2.14478 13.415 1.75004 12.7081 1.75 12.0098C1.75 11.3218 2.14455 10.6141 2.91699 10.0957Z"
        fill="#404959" stroke="#404959" />
    <path
        d="M12.0003 15.3805C11.9703 15.3805 11.9503 15.3805 11.9203 15.3805H11.8703C9.98031 15.3205 8.57031 13.8605 8.57031 12.0605C8.57031 10.2205 10.0703 8.73047 11.9003 8.73047C13.7303 8.73047 15.2303 10.2305 15.2303 12.0605C15.2203 13.8705 13.8103 15.3305 12.0103 15.3905C12.0103 15.3805 12.0103 15.3805 12.0003 15.3805ZM11.9003 10.2205C10.8903 10.2205 10.0703 11.0405 10.0703 12.0505C10.0703 13.0405 10.8403 13.8405 11.8303 13.8805C11.8403 13.8705 11.9203 13.8705 12.0103 13.8805C12.9803 13.8305 13.7303 13.0305 13.7403 12.0505C13.7403 11.0505 12.9203 10.2205 11.9003 10.2205Z"
        fill="#404959" />
    <path
        d="M11.9993 22.7597C10.7993 22.7597 9.5993 22.4497 8.6693 21.8197C7.7893 21.2297 7.2793 20.3897 7.2793 19.4897C7.2793 18.5997 7.7793 17.7397 8.6693 17.1497C10.5393 15.9097 13.4693 15.9097 15.3293 17.1497C16.2093 17.7397 16.7193 18.5797 16.7193 19.4797C16.7193 20.3697 16.2193 21.2297 15.3293 21.8197C14.3993 22.4397 13.1993 22.7597 11.9993 22.7597ZM9.4993 18.4097C9.0293 18.7197 8.7793 19.1097 8.7793 19.4997C8.7793 19.8897 9.0393 20.2697 9.4993 20.5797C10.8493 21.4897 13.1393 21.4897 14.4893 20.5797C14.9593 20.2697 15.2093 19.8797 15.2093 19.4897C15.2093 19.0997 14.9493 18.7197 14.4893 18.4097C13.1493 17.4997 10.8593 17.5097 9.4993 18.4097Z"
        fill="#404959" />
</svg>
    